<?xml version="1.0" encoding="UTF-8"?><svg xmlns="http://www.w3.org/2000/svg" xmlns:xlink="http://www.w3.org/1999/xlink" fill-opacity="1" color-rendering="auto" color-interpolation="auto" text-rendering="auto" stroke="black" stroke-linecap="square" width="955" stroke-miterlimit="10" shape-rendering="auto" stroke-opacity="1" fill="black" stroke-dasharray="none" font-weight="normal" stroke-width="1" height="1118" font-family="'Dialog'" font-style="normal" stroke-linejoin="miter" font-size="12px" stroke-dashoffset="0" image-rendering="auto">
  <!--Generated by ySVG 2.5-->
  <defs id="genericDefs"/>
  <g>
    <defs id="defs1">
      <clipPath clipPathUnits="userSpaceOnUse" id="clipPath1">
        <path d="M0 0 L955 0 L955 1118 L0 1118 L0 0 Z"/>
      </clipPath>
      <clipPath clipPathUnits="userSpaceOnUse" id="clipPath2">
        <path d="M3734 -539 L4689 -539 L4689 579 L3734 579 L3734 -539 Z"/>
      </clipPath>
    </defs>
    <g fill="white" text-rendering="geometricPrecision" shape-rendering="geometricPrecision" transform="translate(-3734,539)" stroke="white">
      <rect x="3734" width="955" height="1118" y="-539" clip-path="url(#clipPath2)" stroke="none"/>
    </g>
    <g fill="white" text-rendering="geometricPrecision" shape-rendering="geometricPrecision" transform="matrix(1,0,0,1,-3734,539)" stroke="white">
      <rect x="3847.1113" y="-463.9054" clip-path="url(#clipPath2)" width="260.3073" rx="4" ry="4" height="146.4836" stroke="none"/>
    </g>
    <g text-rendering="geometricPrecision" stroke-miterlimit="1.45" shape-rendering="geometricPrecision" transform="matrix(1,0,0,1,-3734,539)" stroke-linecap="butt">
      <rect x="3847.1113" y="-463.9054" clip-path="url(#clipPath2)" fill="none" width="260.3073" rx="4" ry="4" height="146.4836"/>
      <text x="3853.1113" xml:space="preserve" y="-452.105" clip-path="url(#clipPath2)" font-family="sans-serif" stroke="none">                              INIT</text>
      <text x="3853.1113" xml:space="preserve" y="-437.4039" clip-path="url(#clipPath2)" font-family="sans-serif" stroke="none"> </text>
      <text x="3853.1113" xml:space="preserve" y="-422.7027" clip-path="url(#clipPath2)" font-family="sans-serif" stroke="none">Действия:</text>
      <text x="3853.1113" xml:space="preserve" y="-408.0015" clip-path="url(#clipPath2)" font-family="sans-serif" stroke="none">1. Инициализация таблиц fingers, latency</text>
      <text x="3853.1113" xml:space="preserve" y="-393.3004" clip-path="url(#clipPath2)" font-family="sans-serif" stroke="none">значениями по умолчанию (seed)</text>
      <text x="3853.1113" xml:space="preserve" y="-378.5992" clip-path="url(#clipPath2)" font-family="sans-serif" stroke="none">2. Отправка сообщения join к seed узлу</text>
      <text x="3853.1113" xml:space="preserve" y="-363.898" clip-path="url(#clipPath2)" font-family="sans-serif" stroke="none">3. Ожидание прихода серии ответных</text>
      <text x="3853.1113" xml:space="preserve" y="-349.1968" clip-path="url(#clipPath2)" font-family="sans-serif" stroke="none">    сообщений reply_find_successor с</text>
      <text x="3853.1113" xml:space="preserve" y="-334.4957" clip-path="url(#clipPath2)" font-family="sans-serif" stroke="none">    замером временных задержек latency</text>
      <text x="3853.1113" xml:space="preserve" y="-319.7945" clip-path="url(#clipPath2)" font-family="sans-serif" stroke="none">4. Установка successor, precessor, fingers</text>
    </g>
    <g fill="white" text-rendering="geometricPrecision" shape-rendering="geometricPrecision" transform="matrix(1,0,0,1,-3734,539)" stroke="white">
      <rect x="3847.1113" y="-212.5147" clip-path="url(#clipPath2)" width="260.3073" rx="4" ry="4" height="101.1118" stroke="none"/>
    </g>
    <g text-rendering="geometricPrecision" stroke-miterlimit="1.45" shape-rendering="geometricPrecision" transform="matrix(1,0,0,1,-3734,539)" stroke-linecap="butt">
      <rect x="3847.1113" y="-212.5147" clip-path="url(#clipPath2)" fill="none" width="260.3073" rx="4" ry="4" height="101.1118"/>
      <text x="3853.8167" xml:space="preserve" y="-193.9979" clip-path="url(#clipPath2)" font-family="sans-serif" stroke="none">                              IDLE</text>
      <text x="3853.8167" xml:space="preserve" y="-179.2968" clip-path="url(#clipPath2)" font-family="sans-serif" stroke="none"> </text>
      <text x="3853.8167" xml:space="preserve" y="-164.5956" clip-path="url(#clipPath2)" font-family="sans-serif" stroke="none">Действия:</text>
      <text x="3853.8167" xml:space="preserve" y="-149.8944" clip-path="url(#clipPath2)" font-family="sans-serif" stroke="none">- проверка наличия входящих сообщений,</text>
      <text x="3853.8167" xml:space="preserve" y="-135.1932" clip-path="url(#clipPath2)" font-family="sans-serif" stroke="none">- проверка наличия запроса от приложения,</text>
      <text x="3853.8167" xml:space="preserve" y="-120.4921" clip-path="url(#clipPath2)" font-family="sans-serif" stroke="none">- проверка истек ли срок доступности узлов</text>
    </g>
    <g fill="white" text-rendering="geometricPrecision" shape-rendering="geometricPrecision" transform="matrix(1,0,0,1,-3734,539)" stroke="white">
      <rect x="4028.3829" y="-523.9054" clip-path="url(#clipPath2)" width="169.3834" rx="4" ry="4" height="30" stroke="none"/>
    </g>
    <g text-rendering="geometricPrecision" stroke-miterlimit="1.45" shape-rendering="geometricPrecision" font-family="sans-serif" transform="matrix(1,0,0,1,-3734,539)" stroke-linecap="butt">
      <text x="4022.9807" xml:space="preserve" y="-504.1916" clip-path="url(#clipPath2)" stroke="none">Истек таймаут ожидания, 20 сек</text>
      <text x="3982.2993" xml:space="preserve" y="-274.7597" clip-path="url(#clipPath2)" stroke="none">Выполнено:</text>
      <text x="3982.2993" xml:space="preserve" y="-260.0586" clip-path="url(#clipPath2)" stroke="none">- принят reply_find_successor для successor,</text>
      <text x="3982.2993" xml:space="preserve" y="-245.3574" clip-path="url(#clipPath2)" stroke="none">- принят reply_find_successor для predecessor,</text>
      <text x="3982.2993" xml:space="preserve" y="-230.6562" clip-path="url(#clipPath2)" stroke="none">- заполнены fingers на 80%</text>
    </g>
    <g fill="white" text-rendering="geometricPrecision" shape-rendering="geometricPrecision" transform="matrix(1,0,0,1,-3734,539)" stroke="white">
      <rect x="4384.9605" y="-234.9415" clip-path="url(#clipPath2)" width="229.3556" rx="4" ry="4" height="185.1455" stroke="none"/>
    </g>
    <g text-rendering="geometricPrecision" stroke-miterlimit="1.45" shape-rendering="geometricPrecision" transform="matrix(1,0,0,1,-3734,539)" stroke-linecap="butt">
      <rect x="4384.9605" y="-234.9415" clip-path="url(#clipPath2)" fill="none" width="229.3556" rx="4" ry="4" height="185.1455"/>
      <text x="4390.9604" xml:space="preserve" y="-220.1456" clip-path="url(#clipPath2)" font-family="sans-serif" stroke="none">           HANDLE_MESSAGE</text>
      <text x="4390.9604" xml:space="preserve" y="-205.4445" clip-path="url(#clipPath2)" font-family="sans-serif" stroke="none"> </text>
      <text x="4390.9604" xml:space="preserve" y="-190.7433" clip-path="url(#clipPath2)" font-family="sans-serif" stroke="none">Действия: </text>
      <text x="4390.9604" xml:space="preserve" y="-176.0421" clip-path="url(#clipPath2)" font-family="sans-serif" stroke="none">1. Проверка входящего сообщения</text>
      <text x="4390.9604" xml:space="preserve" y="-161.3409" clip-path="url(#clipPath2)" font-family="sans-serif" stroke="none">2. Обработка входящего сообщения:</text>
      <text x="4390.9604" xml:space="preserve" y="-146.6398" clip-path="url(#clipPath2)" font-family="sans-serif" stroke="none">- обновление записей в таблице fingers,</text>
      <text x="4390.9604" xml:space="preserve" y="-131.9386" clip-path="url(#clipPath2)" font-family="sans-serif" stroke="none">- обновление записей в таблице latency,</text>
      <text x="4390.9604" xml:space="preserve" y="-117.2374" clip-path="url(#clipPath2)" font-family="sans-serif" stroke="none">- данные из сообщения передать</text>
      <text x="4390.9604" xml:space="preserve" y="-102.5363" clip-path="url(#clipPath2)" font-family="sans-serif" stroke="none"> приложению (сохранить данные)</text>
      <text x="4390.9604" xml:space="preserve" y="-87.8351" clip-path="url(#clipPath2)" font-family="sans-serif" stroke="none">3. При необходимости формирование</text>
      <text x="4390.9604" xml:space="preserve" y="-73.1339" clip-path="url(#clipPath2)" font-family="sans-serif" stroke="none">запроса на отправку ответного</text>
      <text x="4390.9604" xml:space="preserve" y="-58.4327" clip-path="url(#clipPath2)" font-family="sans-serif" stroke="none"> сообщения или пересылку текущего</text>
      <text x="4243.999" xml:space="preserve" y="-129.3405" clip-path="url(#clipPath2)" font-family="sans-serif" stroke="none">Принято сообщение</text>
      <text x="4243.999" xml:space="preserve" y="-114.6393" clip-path="url(#clipPath2)" font-family="sans-serif" stroke="none">из сети:</text>
      <text x="4243.999" xml:space="preserve" y="-99.9381" clip-path="url(#clipPath2)" font-family="sans-serif" stroke="none">- join,</text>
      <text x="4243.999" xml:space="preserve" y="-85.237" clip-path="url(#clipPath2)" font-family="sans-serif" stroke="none">- find_successor</text>
      <text x="4243.999" xml:space="preserve" y="-70.5358" clip-path="url(#clipPath2)" font-family="sans-serif" stroke="none">- reply_find_successor</text>
      <text x="4243.999" xml:space="preserve" y="-55.8346" clip-path="url(#clipPath2)" font-family="sans-serif" stroke="none">- ping</text>
      <text x="4243.999" xml:space="preserve" y="-41.1335" clip-path="url(#clipPath2)" font-family="sans-serif" stroke="none">- reply_ping</text>
      <text x="4243.999" xml:space="preserve" y="-26.4323" clip-path="url(#clipPath2)" font-family="sans-serif" stroke="none">- single_mess</text>
      <text x="4243.999" xml:space="preserve" y="-11.7311" clip-path="url(#clipPath2)" font-family="sans-serif" stroke="none">- broadcast_mess</text>
      <text x="3989.8223" xml:space="preserve" y="348.3038" clip-path="url(#clipPath2)" font-family="sans-serif" stroke="none">Истек таймаут</text>
      <text x="3989.8223" xml:space="preserve" y="363.005" clip-path="url(#clipPath2)" font-family="sans-serif" stroke="none">доступности узла из fingers или</text>
      <text x="3989.8223" xml:space="preserve" y="377.7061" clip-path="url(#clipPath2)" font-family="sans-serif" stroke="none"> successor, или predecessor</text>
      <text x="4134.6851" xml:space="preserve" y="-182.6995" clip-path="url(#clipPath2)" font-family="sans-serif" stroke="none">Обработано сообщение</text>
      <text x="3764.0466" xml:space="preserve" y="-73.8877" clip-path="url(#clipPath2)" font-family="sans-serif" stroke="none">Выполнено:</text>
      <text x="3764.0466" xml:space="preserve" y="-59.1866" clip-path="url(#clipPath2)" font-family="sans-serif" stroke="none">- отсутствуют</text>
      <text x="3764.0466" xml:space="preserve" y="-44.4854" clip-path="url(#clipPath2)" font-family="sans-serif" stroke="none">  отложенные сообщения,</text>
      <text x="3764.0466" xml:space="preserve" y="-29.7842" clip-path="url(#clipPath2)" font-family="sans-serif" stroke="none">- обновлен(-ы)  fingers и/или</text>
      <text x="3764.0466" xml:space="preserve" y="-15.083" clip-path="url(#clipPath2)" font-family="sans-serif" stroke="none">   successor и/или predecessor,</text>
      <text x="3764.0466" xml:space="preserve" y="-0.3819" clip-path="url(#clipPath2)" font-family="sans-serif" stroke="none">- обновнлен(-ы) latency</text>
    </g>
    <g fill="white" text-rendering="geometricPrecision" shape-rendering="geometricPrecision" transform="matrix(1,0,0,1,-3734,539)" stroke="white">
      <rect x="3854.0708" y="390.5707" clip-path="url(#clipPath2)" width="211.7198" rx="4" ry="4" height="119.5801" stroke="none"/>
    </g>
    <g text-rendering="geometricPrecision" stroke-miterlimit="1.45" shape-rendering="geometricPrecision" transform="matrix(1,0,0,1,-3734,539)" stroke-linecap="butt">
      <rect x="3854.0708" y="390.5707" clip-path="url(#clipPath2)" fill="none" width="211.7198" rx="4" ry="4" height="119.5801"/>
      <text x="3866.3594" xml:space="preserve" y="403.6205" clip-path="url(#clipPath2)" font-family="sans-serif" stroke="none">                  STABILIZE</text>
      <text x="3866.3594" xml:space="preserve" y="418.3217" clip-path="url(#clipPath2)" font-family="sans-serif" stroke="none"> </text>
      <text x="3866.3594" xml:space="preserve" y="433.0229" clip-path="url(#clipPath2)" font-family="sans-serif" stroke="none">Действия: </text>
      <text x="3866.3594" xml:space="preserve" y="447.7241" clip-path="url(#clipPath2)" font-family="sans-serif" stroke="none">1. Отправка find_successor</text>
      <text x="3866.3594" xml:space="preserve" y="462.4252" clip-path="url(#clipPath2)" font-family="sans-serif" stroke="none">2. Ожидание reply_find_successor</text>
      <text x="3866.3594" xml:space="preserve" y="477.1264" clip-path="url(#clipPath2)" font-family="sans-serif" stroke="none">с замером latency</text>
      <text x="3866.3594" xml:space="preserve" y="491.8276" clip-path="url(#clipPath2)" font-family="sans-serif" stroke="none">3. Обновление записей</text>
      <text x="3866.3594" xml:space="preserve" y="506.5287" clip-path="url(#clipPath2)" font-family="sans-serif" stroke="none">    fingers, latency</text>
    </g>
    <g fill="white" text-rendering="geometricPrecision" shape-rendering="geometricPrecision" transform="matrix(1,0,0,1,-3734,539)" stroke="white">
      <rect x="4367.2293" y="390.5707" clip-path="url(#clipPath2)" width="243.9039" rx="4" ry="4" height="119.5801" stroke="none"/>
    </g>
    <g text-rendering="geometricPrecision" stroke-miterlimit="1.45" shape-rendering="geometricPrecision" transform="matrix(1,0,0,1,-3734,539)" stroke-linecap="butt">
      <rect x="4367.2293" y="390.5707" clip-path="url(#clipPath2)" fill="none" width="243.9039" rx="4" ry="4" height="119.5801"/>
      <text x="4373.2295" xml:space="preserve" y="418.3217" clip-path="url(#clipPath2)" font-family="sans-serif" stroke="none">                       TRANSMIT</text>
      <text x="4373.2295" xml:space="preserve" y="433.0229" clip-path="url(#clipPath2)" font-family="sans-serif" stroke="none"> </text>
      <text x="4373.2295" xml:space="preserve" y="447.7241" clip-path="url(#clipPath2)" font-family="sans-serif" stroke="none">Действия: </text>
      <text x="4373.2295" xml:space="preserve" y="462.4252" clip-path="url(#clipPath2)" font-family="sans-serif" stroke="none">отправка сообщения по логике LLChord</text>
      <text x="4373.2295" xml:space="preserve" y="477.1264" clip-path="url(#clipPath2)" font-family="sans-serif" stroke="none">или Broadcast с проверкой доступности</text>
      <text x="4373.2295" xml:space="preserve" y="491.8276" clip-path="url(#clipPath2)" font-family="sans-serif" stroke="none">узла</text>
      <text x="4507.041" xml:space="preserve" y="69.0365" clip-path="url(#clipPath2)" font-family="sans-serif" stroke="none">Принят запрос</text>
      <text x="4231.2051" xml:space="preserve" y="482.3086" clip-path="url(#clipPath2)" font-family="sans-serif" stroke="none">Выполнено:</text>
      <text x="4231.2051" xml:space="preserve" y="497.0098" clip-path="url(#clipPath2)" font-family="sans-serif" stroke="none">- узел недоступен,</text>
      <text x="4231.2051" xml:space="preserve" y="511.7109" clip-path="url(#clipPath2)" font-family="sans-serif" stroke="none">- сообщение отложено</text>
      <text x="4198.0737" xml:space="preserve" y="380.7431" clip-path="url(#clipPath2)" font-family="sans-serif" stroke="none">Выполнено:</text>
      <text x="4198.0737" xml:space="preserve" y="395.4443" clip-path="url(#clipPath2)" font-family="sans-serif" stroke="none">- узел доступен,</text>
      <text x="4198.0737" xml:space="preserve" y="410.1454" clip-path="url(#clipPath2)" font-family="sans-serif" stroke="none">- имеется отложенное</text>
      <text x="4198.0737" xml:space="preserve" y="424.8466" clip-path="url(#clipPath2)" font-family="sans-serif" stroke="none">сообщение</text>
    </g>
    <g fill="white" text-rendering="geometricPrecision" shape-rendering="geometricPrecision" transform="matrix(1,0,0,1,-3734,539)" stroke="white">
      <rect x="4387.8534" y="81.1794" clip-path="url(#clipPath2)" width="223.5697" rx="4" ry="4" height="98.7504" stroke="none"/>
    </g>
    <g text-rendering="geometricPrecision" stroke-miterlimit="1.45" shape-rendering="geometricPrecision" transform="matrix(1,0,0,1,-3734,539)" stroke-linecap="butt">
      <rect x="4387.8534" y="81.1794" clip-path="url(#clipPath2)" fill="none" width="223.5697" rx="4" ry="4" height="98.7504"/>
      <text x="4393.8535" xml:space="preserve" y="97.7872" clip-path="url(#clipPath2)" font-family="sans-serif" stroke="none">           HANDLE_REQUEST</text>
      <text x="4393.8535" xml:space="preserve" y="112.4884" clip-path="url(#clipPath2)" font-family="sans-serif" stroke="none"> </text>
      <text x="4393.8535" xml:space="preserve" y="127.1896" clip-path="url(#clipPath2)" font-family="sans-serif" stroke="none">Действия: </text>
      <text x="4393.8535" xml:space="preserve" y="141.8907" clip-path="url(#clipPath2)" font-family="sans-serif" stroke="none">- обработка входящего запроса</text>
      <text x="4393.8535" xml:space="preserve" y="156.5919" clip-path="url(#clipPath2)" font-family="sans-serif" stroke="none">- формирование сообщения </text>
      <text x="4393.8535" xml:space="preserve" y="171.2931" clip-path="url(#clipPath2)" font-family="sans-serif" stroke="none">в зависимости от типа запроса</text>
      <text x="4510.394" xml:space="preserve" y="200.4181" clip-path="url(#clipPath2)" font-family="sans-serif" stroke="none">Сформировано</text>
      <text x="4510.394" xml:space="preserve" y="215.1192" clip-path="url(#clipPath2)" font-family="sans-serif" stroke="none">сообщение</text>
      <text x="4070.4966" xml:space="preserve" y="172.6269" clip-path="url(#clipPath2)" font-family="sans-serif" stroke="none">Принят запрос:</text>
      <text x="4070.4966" xml:space="preserve" y="187.3281" clip-path="url(#clipPath2)" font-family="sans-serif" stroke="none">- единичнаяое сообщение отправить</text>
      <text x="4070.4966" xml:space="preserve" y="202.0293" clip-path="url(#clipPath2)" font-family="sans-serif" stroke="none">- broadcast рассылку выполнить</text>
      <text x="4070.4966" xml:space="preserve" y="216.7305" clip-path="url(#clipPath2)" font-family="sans-serif" stroke="none">- reset, flush</text>
      <text x="4124.7305" xml:space="preserve" y="-371.6044" clip-path="url(#clipPath2)" font-family="sans-serif" stroke="none">Выполнен запрос reset:</text>
      <text x="4124.7305" xml:space="preserve" y="-356.9032" clip-path="url(#clipPath2)" font-family="sans-serif" stroke="none">- сброс очередей сообщений, запросов</text>
      <text x="4124.7305" xml:space="preserve" y="-342.202" clip-path="url(#clipPath2)" font-family="sans-serif" stroke="none">- сброс настроек в значения по умолчанию</text>
      <text x="4245.0684" xml:space="preserve" y="315.917" clip-path="url(#clipPath2)" font-family="sans-serif" stroke="none">Отправлено сообщение</text>
      <text x="3990.3865" xml:space="preserve" y="527.1731" clip-path="url(#clipPath2)" font-family="sans-serif" stroke="none">Выполнено:</text>
      <text x="3990.3865" xml:space="preserve" y="541.8743" clip-path="url(#clipPath2)" font-family="sans-serif" stroke="none">- узлы fingers недоступны,</text>
      <text x="3990.3865" xml:space="preserve" y="556.5754" clip-path="url(#clipPath2)" font-family="sans-serif" stroke="none">- сформирован запрос reset</text>
      <text x="4120.6001" xml:space="preserve" y="111.0781" clip-path="url(#clipPath2)" font-family="sans-serif" stroke="none">Выполен запрос flush:</text>
      <text x="4120.6001" xml:space="preserve" y="125.7793" clip-path="url(#clipPath2)" font-family="sans-serif" stroke="none">- сброс очередей сообщений, запросов</text>
    </g>
    <g fill="white" text-rendering="geometricPrecision" shape-rendering="geometricPrecision" transform="matrix(1,0,0,1,-3734,539)" stroke="white">
      <rect x="3749.5418" y="330.5707" clip-path="url(#clipPath2)" width="169.3834" rx="4" ry="4" height="30" stroke="none"/>
    </g>
    <g text-rendering="geometricPrecision" stroke-miterlimit="1.45" shape-rendering="geometricPrecision" font-family="sans-serif" transform="matrix(1,0,0,1,-3734,539)" stroke-linecap="butt">
      <text x="3786.1426" xml:space="preserve" y="342.934" clip-path="url(#clipPath2)" stroke="none">Истек таймаут</text>
      <text x="3786.1426" xml:space="preserve" y="357.6352" clip-path="url(#clipPath2)" stroke="none">ожидания, 20 сек</text>
    </g>
    <g fill="white" text-rendering="geometricPrecision" shape-rendering="geometricPrecision" transform="matrix(1,0,0,1,-3734,539)" stroke="white">
      <rect x="4504.3939" y="318.2561" clip-path="url(#clipPath2)" width="169.3834" rx="4" ry="4" height="42.3146" stroke="none"/>
    </g>
    <g text-rendering="geometricPrecision" stroke-miterlimit="1.45" shape-rendering="geometricPrecision" font-family="sans-serif" transform="matrix(1,0,0,1,-3734,539)" stroke-linecap="butt">
      <text x="4548.7495" xml:space="preserve" y="329.4261" clip-path="url(#clipPath2)" stroke="none">Истек таймаут</text>
      <text x="4548.7495" xml:space="preserve" y="344.1273" clip-path="url(#clipPath2)" stroke="none">доступности</text>
      <text x="4548.7495" xml:space="preserve" y="358.8284" clip-path="url(#clipPath2)" stroke="none">узла, 3 сек</text>
      <path fill="none" d="M4107.4526 -437.1686 L4110.9624 -437.5224 L4115.8848 -439.0505 L4120.3394 -441.4684 L4124.2207 -444.6707 L4127.4229 -448.5518 L4129.8408 -453.0065 L4131.3687 -457.9291 L4131.9014 -463.2143 L4131.3687 -468.4994 L4129.8408 -473.4221 L4127.4229 -477.8767 L4124.2207 -481.7578 L4120.3394 -484.9601 L4115.8848 -487.378 L4110.9619 -488.906 L4105.6768 -489.4388 L4100.3916 -488.906 L4095.4692 -487.3779 L4091.0146 -484.9601 L4087.1333 -481.7578 L4083.9312 -477.8766 L4081.5132 -473.422 L4081.0029 -471.7781 L4080.9929 -471.6786" clip-path="url(#clipPath2)"/>
      <path d="M4079.5046 -463.8182 L4086.6497 -474.6786 L4081.179 -472.6611 L4076.8242 -476.5389 Z" clip-path="url(#clipPath2)" stroke="none"/>
      <path fill="none" d="M3977.2649 -317.3459 L3977.2649 -220.5279" clip-path="url(#clipPath2)"/>
      <path d="M3977.2649 -212.5279 L3982.2649 -224.5279 L3977.2649 -221.5279 L3972.2649 -224.5279 Z" clip-path="url(#clipPath2)" stroke="none"/>
      <path fill="none" d="M3887.8176 -212.5357 L3887.8159 -218.2322 L3886.7048 -223.6913 L3884.5859 -228.7433 L3881.5618 -233.2633 L3877.7339 -237.1266 L3873.2046 -240.2083 L3868.0759 -242.3837 L3862.4497 -243.5279 L3856.7083 -243.5262 L3851.2493 -242.4149 L3846.1973 -240.2962 L3841.6772 -237.2719 L3837.814 -233.4441 L3834.7322 -228.9148 L3832.5569 -223.7861 L3831.4126 -218.1598 L3831.4143 -212.4184 L3832.5256 -206.9594 L3834.6443 -201.9074 L3837.6687 -197.3874 L3840.5146 -194.515 L3840.5991 -194.4616" clip-path="url(#clipPath2)"/>
      <path d="M3847.1897 -189.9269 L3840.1379 -200.8481 L3839.7754 -195.0285 L3834.4695 -192.6099 Z" clip-path="url(#clipPath2)" stroke="none"/>
      <path fill="none" d="M4107.4331 -141.8024 L4376.9258 -141.8024" clip-path="url(#clipPath2)"/>
      <path d="M4384.9258 -141.8024 L4372.9258 -146.8024 L4375.9258 -141.8024 L4372.9258 -136.8024 Z" clip-path="url(#clipPath2)" stroke="none"/>
      <path fill="none" d="M4384.9731 -173.945 L4115.4067 -172.3722" clip-path="url(#clipPath2)"/>
      <path d="M4107.4067 -172.3255 L4119.4355 -167.3956 L4116.4067 -172.378 L4119.3774 -177.3954 Z" clip-path="url(#clipPath2)" stroke="none"/>
      <path fill="none" d="M3977.2649 -111.4052 L3977.2649 382.5592" clip-path="url(#clipPath2)"/>
      <path d="M3977.2649 390.5592 L3982.2649 378.5592 L3977.2649 381.5592 L3972.2649 378.5592 Z" clip-path="url(#clipPath2)" stroke="none"/>
      <path fill="none" d="M3883.1323 390.5362 L3882.885 389.5158 L3880.9663 385.3346 L3878.2881 381.5939 L3874.9192 378.4117 L3870.928 375.906 L3866.3828 374.1947 L3861.5874 373.425 L3856.8789 373.6199 L3852.375 374.7109 L3848.1936 376.6296 L3844.4529 379.3077 L3841.2708 382.6765 L3838.7651 386.6678 L3837.0537 391.2131 L3836.2842 396.0084 L3836.479 400.717 L3837.5701 405.2209 L3839.4888 409.4022 L3842.1667 413.1429 L3845.5356 416.325 L3846.8 417.1188 L3846.8936 417.1541" clip-path="url(#clipPath2)"/>
      <path d="M3854.127 420.5713 L3845.4126 410.9245 L3845.9893 416.7269 L3841.1411 419.9663 Z" clip-path="url(#clipPath2)" stroke="none"/>
      <path fill="none" d="M3938.925 390.5592 L3938.925 -103.4116" clip-path="url(#clipPath2)"/>
      <path d="M3938.925 -111.4116 L3933.925 -99.4116 L3938.925 -102.4116 L3943.925 -99.4116 Z" clip-path="url(#clipPath2)" stroke="none"/>
      <path fill="none" d="M4065.8188 435.0757 L4359.2036 435.0757" clip-path="url(#clipPath2)"/>
      <path d="M4367.2036 435.0757 L4355.2036 430.0757 L4358.2036 435.0757 L4355.2036 440.0757 Z" clip-path="url(#clipPath2)" stroke="none"/>
      <path fill="none" d="M4611.1606 417.453 L4615.7241 416.0248 L4619.8193 413.7671 L4623.3364 410.8042 L4626.2002 407.2491 L4628.3364 403.2147 L4629.6709 398.814 L4630.1294 394.1601 L4629.6367 389.3659 L4628.1973 384.7664 L4625.9399 380.6711 L4622.9771 377.1543 L4619.4219 374.2904 L4615.3872 372.154 L4610.9868 370.8195 L4606.3325 370.3612 L4601.5386 370.8537 L4596.939 372.2932 L4592.8438 374.5508 L4589.3271 377.5137 L4586.4629 381.0689 L4585.4512 382.9799 L4585.4258 383.0766" clip-path="url(#clipPath2)"/>
      <path d="M4582.856 390.6527 L4591.4453 380.8946 L4585.7466 382.1296 L4581.9751 377.6826 Z" clip-path="url(#clipPath2)" stroke="none"/>
      <path fill="none" d="M4367.2222 468.0531 L4073.7891 468.0531" clip-path="url(#clipPath2)"/>
      <path d="M4065.7891 468.0531 L4077.7891 473.0531 L4074.7891 468.0531 L4077.7891 463.0531 Z" clip-path="url(#clipPath2)" stroke="none"/>
      <path fill="none" d="M4393.0063 390.5522 L4393.0063 303.9787 L4392.3813 299.6037 L4390.5063 296.4787 L4387.3813 294.6037 L4383.0063 293.9787 L4025.4426 293.9787 L4021.0676 293.3537 L4017.9426 291.4787 L4016.0676 288.3537 L4015.4426 283.9787 L4015.4426 -103.396" clip-path="url(#clipPath2)"/>
      <path d="M4015.4426 -111.396 L4010.4426 -99.396 L4015.4426 -102.396 L4020.4426 -99.396 Z" clip-path="url(#clipPath2)" stroke="none"/>
      <path fill="none" d="M4499.6382 -49.784 L4499.6382 73.1992" clip-path="url(#clipPath2)"/>
      <path d="M4499.6382 81.1992 L4504.6382 69.1992 L4499.6382 72.1992 L4494.6382 69.1992 Z" clip-path="url(#clipPath2)" stroke="none"/>
      <path fill="none" d="M4051.915 -111.3785 L4051.915 146.3914 L4052.54 150.7664 L4054.415 153.8914 L4057.54 155.7664 L4061.915 156.3914 L4379.8311 156.3914" clip-path="url(#clipPath2)"/>
      <path d="M4387.8311 156.3914 L4375.8311 151.3914 L4378.8311 156.3914 L4375.8311 161.3914 Z" clip-path="url(#clipPath2)" stroke="none"/>
      <path fill="none" d="M3982.2844 510.1732 L3982.2844 553.1583 L3982.9094 557.5333 L3984.7844 560.6583 L3987.9094 562.5333 L3992.2844 563.1583 L4645.6113 563.1583 L4649.9863 562.5333 L4653.1113 560.6583 L4654.9863 557.5333 L4655.6113 553.1583 L4655.6113 163.9521 L4654.9863 159.5771 L4653.1113 156.4521 L4649.9863 154.5771 L4645.6113 153.9521 L4619.4473 153.9521" clip-path="url(#clipPath2)"/>
      <path d="M4611.4473 153.9521 L4623.4473 158.9521 L4620.4473 153.9521 L4623.4473 148.9521 Z" clip-path="url(#clipPath2)" stroke="none"/>
      <path fill="none" d="M4499.6382 179.9533 L4499.6382 382.5624" clip-path="url(#clipPath2)"/>
      <path d="M4499.6382 390.5624 L4504.6382 378.5624 L4499.6382 381.5624 L4494.6382 378.5624 Z" clip-path="url(#clipPath2)" stroke="none"/>
      <path fill="none" d="M4611.4419 130.5546 L4645.4556 130.5546 L4649.8306 129.9296 L4652.9556 128.0546 L4654.8306 124.9296 L4655.4556 120.5546 L4655.4556 -380.6636 L4654.8306 -385.0386 L4652.9556 -388.1636 L4649.8306 -390.0386 L4645.4556 -390.6636 L4115.4473 -390.6636" clip-path="url(#clipPath2)"/>
      <path d="M4107.4473 -390.6636 L4119.4473 -385.6636 L4116.4473 -390.6636 L4119.4473 -395.6636 Z" clip-path="url(#clipPath2)" stroke="none"/>
      <path fill="none" d="M4387.8472 130.5546 L4104.6001 130.5546 L4100.2251 129.9296 L4097.1001 128.0546 L4095.2251 124.9296 L4094.6001 120.5546 L4094.6001 -103.3783" clip-path="url(#clipPath2)"/>
      <path d="M4094.6001 -111.3783 L4089.6001 -99.3783 L4094.6001 -102.3783 L4099.6001 -99.3783 Z" clip-path="url(#clipPath2)" stroke="none"/>
    </g>
  </g>
</svg>
