<?xml version="1.0" encoding="UTF-8"?><svg xmlns="http://www.w3.org/2000/svg" xmlns:xlink="http://www.w3.org/1999/xlink" fill-opacity="1" color-rendering="auto" color-interpolation="auto" text-rendering="auto" stroke="black" stroke-linecap="square" width="945" stroke-miterlimit="10" shape-rendering="auto" stroke-opacity="1" fill="black" stroke-dasharray="none" font-weight="normal" stroke-width="1" height="1038" font-family="'Dialog'" font-style="normal" stroke-linejoin="miter" font-size="12px" stroke-dashoffset="0" image-rendering="auto">
  <!--Generated by ySVG 2.5-->
  <defs id="genericDefs"/>
  <g>
    <defs id="defs1">
      <clipPath clipPathUnits="userSpaceOnUse" id="clipPath1">
        <path d="M0 0 L945 0 L945 1038 L0 1038 L0 0 Z"/>
      </clipPath>
      <clipPath clipPathUnits="userSpaceOnUse" id="clipPath2">
        <path d="M7557 -1252 L8502 -1252 L8502 -214 L7557 -214 L7557 -1252 Z"/>
      </clipPath>
    </defs>
    <g fill="white" text-rendering="geometricPrecision" shape-rendering="geometricPrecision" transform="translate(-7557,1252)" stroke="white">
      <rect x="7557" width="945" height="1038" y="-1252" clip-path="url(#clipPath2)" stroke="none"/>
    </g>
    <g fill="rgb(204,255,153)" text-rendering="geometricPrecision" shape-rendering="geometricPrecision" transform="matrix(1,0,0,1,-7557,1252)" stroke="rgb(204,255,153)">
      <rect x="7572.5936" y="-1076.2157" clip-path="url(#clipPath2)" width="913.7558" rx="4" ry="4" height="733.2574" stroke="none"/>
    </g>
    <g text-rendering="geometricPrecision" stroke-miterlimit="1.45" shape-rendering="geometricPrecision" transform="matrix(1,0,0,1,-7557,1252)" stroke-linecap="butt">
      <rect x="7572.5936" y="-1076.2157" clip-path="url(#clipPath2)" fill="none" width="913.7558" rx="4" ry="4" height="733.2574"/>
    </g>
    <g fill="rgb(153,255,153)" text-rendering="geometricPrecision" shape-rendering="geometricPrecision" transform="matrix(1,0,0,1,-7557,1252)" stroke="rgb(153,255,153)">
      <rect x="7572.5936" y="-1236.7524" clip-path="url(#clipPath2)" width="913.7558" rx="4" ry="4" height="69.7349" stroke="none"/>
    </g>
    <g text-rendering="geometricPrecision" stroke-miterlimit="1.45" shape-rendering="geometricPrecision" transform="matrix(1,0,0,1,-7557,1252)" stroke-linecap="butt">
      <rect x="7572.5936" y="-1236.7524" clip-path="url(#clipPath2)" fill="none" width="913.7558" rx="4" ry="4" height="69.7349"/>
      <text x="7971.1357" font-size="16px" y="-1195.5999" clip-path="url(#clipPath2)" font-family="sans-serif" stroke="none" xml:space="preserve">ПРИЛОЖЕНИЯ</text>
    </g>
    <g fill="rgb(204,255,255)" text-rendering="geometricPrecision" shape-rendering="geometricPrecision" transform="matrix(1,0,0,1,-7557,1252)" stroke="rgb(204,255,255)">
      <rect x="7572.5936" y="-299.0959" clip-path="url(#clipPath2)" width="913.7558" rx="4" ry="4" height="69.7349" stroke="none"/>
    </g>
    <g text-rendering="geometricPrecision" stroke-miterlimit="1.45" shape-rendering="geometricPrecision" transform="matrix(1,0,0,1,-7557,1252)" stroke-linecap="butt">
      <rect x="7572.5936" y="-299.0959" clip-path="url(#clipPath2)" fill="none" width="913.7558" rx="4" ry="4" height="69.7349"/>
      <text x="7877.4521" font-size="16px" y="-257.9433" clip-path="url(#clipPath2)" font-family="sans-serif" stroke="none" xml:space="preserve">ТРАНСПОРТНЫЙ УРОВЕНЬ  P2P СЕТИ</text>
    </g>
    <g fill="white" text-rendering="geometricPrecision" shape-rendering="geometricPrecision" transform="matrix(1,0,0,1,-7557,1252)" stroke="white">
      <rect x="7592.2774" y="-1046.2157" clip-path="url(#clipPath2)" width="196.9227" rx="4" ry="4" height="52.7224" stroke="none"/>
    </g>
    <g text-rendering="geometricPrecision" stroke-miterlimit="1.45" shape-rendering="geometricPrecision" transform="matrix(1,0,0,1,-7557,1252)" stroke-linecap="butt">
      <rect x="7592.2774" y="-1046.2157" clip-path="url(#clipPath2)" fill="none" width="196.9227" rx="4" ry="4" height="52.7224"/>
      <text x="7623.731" xml:space="preserve" y="-1029.8418" clip-path="url(#clipPath2)" font-family="sans-serif" stroke="none">CONFIG_REQ_BUFFER</text>
      <text x="7598.603" xml:space="preserve" y="-1015.1406" clip-path="url(#clipPath2)" font-family="sans-serif" stroke="none">Приоритет обработки очереди: 1</text>
      <text x="7623.7163" xml:space="preserve" y="-1000.4395" clip-path="url(#clipPath2)" font-family="sans-serif" stroke="none">Выполнить немедленно</text>
      <text x="7606.604" xml:space="preserve" y="-1108.9924" clip-path="url(#clipPath2)" font-family="sans-serif" stroke="none">req_hard_reset,</text>
      <text x="7606.604" xml:space="preserve" y="-1094.2913" clip-path="url(#clipPath2)" font-family="sans-serif" stroke="none">req_soft_reset,</text>
      <text x="7606.604" xml:space="preserve" y="-1079.5901" clip-path="url(#clipPath2)" font-family="sans-serif" stroke="none">req_flush</text>
    </g>
    <g fill="white" text-rendering="geometricPrecision" shape-rendering="geometricPrecision" transform="matrix(1,0,0,1,-7557,1252)" stroke="white">
      <rect x="7815.5559" y="-1046.376" clip-path="url(#clipPath2)" width="196.9227" rx="4" ry="4" height="53.0431" stroke="none"/>
    </g>
    <g text-rendering="geometricPrecision" stroke-miterlimit="1.45" shape-rendering="geometricPrecision" transform="matrix(1,0,0,1,-7557,1252)" stroke-linecap="butt">
      <rect x="7815.5559" y="-1046.376" clip-path="url(#clipPath2)" fill="none" width="196.9227" rx="4" ry="4" height="53.0431"/>
      <text x="7853.3374" xml:space="preserve" y="-1022.4912" clip-path="url(#clipPath2)" font-family="sans-serif" stroke="none">MESS_REQ_BUFFER</text>
      <text x="7821.8813" xml:space="preserve" y="-1007.79" clip-path="url(#clipPath2)" font-family="sans-serif" stroke="none">Приоритет обработки очереди: 3</text>
      <text x="7815.834" xml:space="preserve" y="-1109.3335" clip-path="url(#clipPath2)" font-family="sans-serif" stroke="none">req_tx_signal</text>
      <text x="7815.834" xml:space="preserve" y="-1094.6323" clip-path="url(#clipPath2)" font-family="sans-serif" stroke="none">req_tx_broadcast</text>
    </g>
    <g fill="white" text-rendering="geometricPrecision" shape-rendering="geometricPrecision" transform="matrix(1,0,0,1,-7557,1252)" stroke="white">
      <rect x="7609.2653" y="-740.1052" clip-path="url(#clipPath2)" width="162.9468" rx="4" ry="4" height="69.7349" stroke="none"/>
    </g>
    <g text-rendering="geometricPrecision" stroke-miterlimit="1.45" shape-rendering="geometricPrecision" transform="matrix(1,0,0,1,-7557,1252)" stroke-linecap="butt">
      <rect x="7609.2653" y="-740.1052" clip-path="url(#clipPath2)" fill="none" width="162.9468" rx="4" ry="4" height="69.7349"/>
      <text x="7634.7261" xml:space="preserve" y="-707.8745" clip-path="url(#clipPath2)" font-family="sans-serif" stroke="none">RX_MESS_BUFFER</text>
      <text x="7629.2153" xml:space="preserve" y="-693.1733" clip-path="url(#clipPath2)" font-family="sans-serif" stroke="none">Приоритет очереди: 4</text>
    </g>
    <g fill="white" text-rendering="geometricPrecision" shape-rendering="geometricPrecision" transform="matrix(1,0,0,1,-7557,1252)" stroke="white">
      <rect x="7867.3165" y="-740.1052" clip-path="url(#clipPath2)" width="187.9275" rx="4" ry="4" height="69.7349" stroke="none"/>
    </g>
    <g text-rendering="geometricPrecision" stroke-miterlimit="1.45" shape-rendering="geometricPrecision" transform="matrix(1,0,0,1,-7557,1252)" stroke-linecap="butt">
      <rect x="7867.3165" y="-740.1052" clip-path="url(#clipPath2)" fill="none" width="187.9275" rx="4" ry="4" height="69.7349"/>
      <text x="7905.9355" xml:space="preserve" y="-707.8745" clip-path="url(#clipPath2)" font-family="sans-serif" stroke="none">TX_MESS_BUFFER</text>
      <text x="7899.7568" xml:space="preserve" y="-693.1733" clip-path="url(#clipPath2)" font-family="sans-serif" stroke="none">Приоритет очереди: 5</text>
    </g>
    <g fill="white" text-rendering="geometricPrecision" shape-rendering="geometricPrecision" transform="matrix(1,0,0,1,-7557,1252)" stroke="white">
      <rect x="7783.7902" y="-928.791" clip-path="url(#clipPath2)" width="271.4538" rx="4" ry="4" height="142.0763" stroke="none"/>
    </g>
    <g text-rendering="geometricPrecision" stroke-miterlimit="1.45" shape-rendering="geometricPrecision" transform="matrix(1,0,0,1,-7557,1252)" stroke-linecap="butt">
      <rect x="7783.7902" y="-928.791" clip-path="url(#clipPath2)" fill="none" width="271.4538" rx="4" ry="4" height="142.0763"/>
      <text x="7789.79" xml:space="preserve" y="-911.8437" clip-path="url(#clipPath2)" font-family="sans-serif" stroke="none">                      CORE</text>
      <text x="7789.79" xml:space="preserve" y="-897.1425" clip-path="url(#clipPath2)" font-family="sans-serif" stroke="none">1. Обработать очереди по порядку</text>
      <text x="7789.79" xml:space="preserve" y="-882.4413" clip-path="url(#clipPath2)" font-family="sans-serif" stroke="none">    приоритета и в соответствии с логикой</text>
      <text x="7789.79" xml:space="preserve" y="-867.7402" clip-path="url(#clipPath2)" font-family="sans-serif" stroke="none">    Машины Состояний (МС).</text>
      <text x="7789.79" xml:space="preserve" y="-853.039" clip-path="url(#clipPath2)" font-family="sans-serif" stroke="none">Используются функции:</text>
      <text x="7789.79" xml:space="preserve" y="-838.3378" clip-path="url(#clipPath2)" font-family="sans-serif" stroke="none">- get_type_message</text>
      <text x="7789.79" xml:space="preserve" y="-823.6367" clip-path="url(#clipPath2)" font-family="sans-serif" stroke="none">- process_message_fsm</text>
      <text x="7789.79" xml:space="preserve" y="-808.9355" clip-path="url(#clipPath2)" font-family="sans-serif" stroke="none">- perform_checks</text>
      <text x="7789.79" xml:space="preserve" y="-794.2343" clip-path="url(#clipPath2)" font-family="sans-serif" stroke="none">...</text>
    </g>
    <g fill="white" text-rendering="geometricPrecision" shape-rendering="geometricPrecision" transform="matrix(1,0,0,1,-7557,1252)" stroke="white">
      <rect x="8216.745" y="-699.569" clip-path="url(#clipPath2)" width="180.2174" rx="4" ry="4" height="21.5466" stroke="none"/>
    </g>
    <g text-rendering="geometricPrecision" stroke-miterlimit="1.45" shape-rendering="geometricPrecision" transform="matrix(1,0,0,1,-7557,1252)" stroke-linecap="butt">
      <rect x="8216.745" y="-699.569" clip-path="url(#clipPath2)" fill="none" width="180.2174" rx="4" ry="4" height="21.5466"/>
      <text x="8248.1543" xml:space="preserve" y="-684.0818" clip-path="url(#clipPath2)" font-family="sans-serif" stroke="none">perform_conf_request</text>
      <text x="7580.145" xml:space="preserve" y="-954.2172" clip-path="url(#clipPath2)" font-family="sans-serif" stroke="none">уведомление</text>
      <text x="7580.145" xml:space="preserve" y="-939.516" clip-path="url(#clipPath2)" font-family="sans-serif" stroke="none">очередь непуста</text>
      <text x="7787.2808" xml:space="preserve" y="-954.2172" clip-path="url(#clipPath2)" font-family="sans-serif" stroke="none">уведомление</text>
      <text x="7787.2808" xml:space="preserve" y="-939.516" clip-path="url(#clipPath2)" font-family="sans-serif" stroke="none">очередь непуста</text>
    </g>
    <g fill="white" text-rendering="geometricPrecision" shape-rendering="geometricPrecision" transform="matrix(1,0,0,1,-7557,1252)" stroke="white">
      <rect x="7852.3928" y="-480.9352" clip-path="url(#clipPath2)" width="223.1371" rx="4" ry="4" height="101.6034" stroke="none"/>
    </g>
    <g text-rendering="geometricPrecision" stroke-miterlimit="1.45" shape-rendering="geometricPrecision" transform="matrix(1,0,0,1,-7557,1252)" stroke-linecap="butt">
      <rect x="7852.3928" y="-480.9352" clip-path="url(#clipPath2)" fill="none" width="223.1371" rx="4" ry="4" height="101.6034"/>
      <text x="7858.3926" xml:space="preserve" y="-454.822" clip-path="url(#clipPath2)" font-family="sans-serif" stroke="none">            SEND_MESS</text>
      <text x="7858.3926" xml:space="preserve" y="-440.1208" clip-path="url(#clipPath2)" font-family="sans-serif" stroke="none">Действия:</text>
      <text x="7858.3926" xml:space="preserve" y="-425.4196" clip-path="url(#clipPath2)" font-family="sans-serif" stroke="none">Cообщение извлекается из буфера и</text>
      <text x="7858.3926" xml:space="preserve" y="-410.7184" clip-path="url(#clipPath2)" font-family="sans-serif" stroke="none">отправляется в p2p сеть по логике</text>
      <text x="7858.3926" xml:space="preserve" y="-396.0173" clip-path="url(#clipPath2)" font-family="sans-serif" stroke="none">LLChord или Broadcast</text>
    </g>
    <g fill="white" text-rendering="geometricPrecision" shape-rendering="geometricPrecision" transform="matrix(1,0,0,1,-7557,1252)" stroke="white">
      <rect x="7609.2653" y="-480.9352" clip-path="url(#clipPath2)" width="162.9468" rx="4" ry="4" height="101.6034" stroke="none"/>
    </g>
    <g text-rendering="geometricPrecision" stroke-miterlimit="1.45" shape-rendering="geometricPrecision" transform="matrix(1,0,0,1,-7557,1252)" stroke-linecap="butt">
      <rect x="7609.2653" y="-480.9352" clip-path="url(#clipPath2)" fill="none" width="162.9468" rx="4" ry="4" height="101.6034"/>
      <text x="7644.0571" xml:space="preserve" y="-440.1208" clip-path="url(#clipPath2)" font-family="sans-serif" stroke="none">RECEIVE_MESS</text>
      <text x="7635.312" xml:space="preserve" y="-425.4196" clip-path="url(#clipPath2)" font-family="sans-serif" stroke="none">принять сообщение</text>
      <text x="7670.5327" xml:space="preserve" y="-410.7184" clip-path="url(#clipPath2)" font-family="sans-serif" stroke="none">из сети</text>
      <text x="7884.8945" xml:space="preserve" y="-578.8166" clip-path="url(#clipPath2)" font-family="sans-serif" stroke="none">tx_message</text>
      <text x="7970.1924" xml:space="preserve" y="-648.6445" clip-path="url(#clipPath2)" font-family="sans-serif" stroke="none">приоритеты</text>
      <text x="7970.1924" xml:space="preserve" y="-633.9434" clip-path="url(#clipPath2)" font-family="sans-serif" stroke="none">сообщений при отправке:</text>
      <text x="7970.1924" xml:space="preserve" y="-619.2422" clip-path="url(#clipPath2)" font-family="sans-serif" stroke="none">1. join</text>
      <text x="7970.1924" xml:space="preserve" y="-604.541" clip-path="url(#clipPath2)" font-family="sans-serif" stroke="none">2. notify</text>
      <text x="7970.1924" xml:space="preserve" y="-589.8398" clip-path="url(#clipPath2)" font-family="sans-serif" stroke="none">3. ack</text>
      <text x="7970.1924" xml:space="preserve" y="-575.1387" clip-path="url(#clipPath2)" font-family="sans-serif" stroke="none">3. reply_find_successor</text>
      <text x="7970.1924" xml:space="preserve" y="-560.4375" clip-path="url(#clipPath2)" font-family="sans-serif" stroke="none">4. find_successor</text>
      <text x="7970.1924" xml:space="preserve" y="-545.7363" clip-path="url(#clipPath2)" font-family="sans-serif" stroke="none">5. forward_broadcast</text>
      <text x="7970.1924" xml:space="preserve" y="-531.0352" clip-path="url(#clipPath2)" font-family="sans-serif" stroke="none">6. forward_single</text>
      <text x="7970.1924" xml:space="preserve" y="-516.334" clip-path="url(#clipPath2)" font-family="sans-serif" stroke="none">7. broadcast</text>
      <text x="7970.1924" xml:space="preserve" y="-501.6328" clip-path="url(#clipPath2)" font-family="sans-serif" stroke="none">8. single</text>
      <text x="7620.0454" xml:space="preserve" y="-577.8045" clip-path="url(#clipPath2)" font-family="sans-serif" stroke="none">rx_message</text>
      <text x="7589.6255" xml:space="preserve" y="-795.5313" clip-path="url(#clipPath2)" font-family="sans-serif" stroke="none">уведомление</text>
      <text x="7589.6255" xml:space="preserve" y="-780.8301" clip-path="url(#clipPath2)" font-family="sans-serif" stroke="none">очередь непуста</text>
    </g>
    <g fill="white" text-rendering="geometricPrecision" shape-rendering="geometricPrecision" transform="matrix(1,0,0,1,-7557,1252)" stroke="white">
      <rect x="8216.745" y="-655.5171" clip-path="url(#clipPath2)" width="180.2174" rx="4" ry="4" height="21.5466" stroke="none"/>
    </g>
    <g text-rendering="geometricPrecision" stroke-miterlimit="1.45" shape-rendering="geometricPrecision" transform="matrix(1,0,0,1,-7557,1252)" stroke-linecap="butt">
      <rect x="8216.745" y="-655.5171" clip-path="url(#clipPath2)" fill="none" width="180.2174" rx="4" ry="4" height="21.5466"/>
      <text x="8228.1533" xml:space="preserve" y="-640.0299" clip-path="url(#clipPath2)" font-family="sans-serif" stroke="none">perform_checks_rx_message</text>
    </g>
    <g fill="white" text-rendering="geometricPrecision" shape-rendering="geometricPrecision" transform="matrix(1,0,0,1,-7557,1252)" stroke="white">
      <rect x="8106.6363" y="-868.5262" clip-path="url(#clipPath2)" width="180.2174" rx="4" ry="4" height="21.5466" stroke="none"/>
    </g>
    <g text-rendering="geometricPrecision" stroke-miterlimit="1.45" shape-rendering="geometricPrecision" transform="matrix(1,0,0,1,-7557,1252)" stroke-linecap="butt">
      <rect x="8106.6363" y="-868.5262" clip-path="url(#clipPath2)" fill="none" width="180.2174" rx="4" ry="4" height="21.5466"/>
      <text x="8155.7119" xml:space="preserve" y="-853.039" clip-path="url(#clipPath2)" font-family="sans-serif" stroke="none">get_event_type</text>
    </g>
    <g fill="white" text-rendering="geometricPrecision" shape-rendering="geometricPrecision" transform="matrix(1,0,0,1,-7557,1252)" stroke="white">
      <rect x="8216.745" y="-505.7591" clip-path="url(#clipPath2)" width="180.2174" rx="4" ry="4" height="21.5466" stroke="none"/>
    </g>
    <g text-rendering="geometricPrecision" stroke-miterlimit="1.45" shape-rendering="geometricPrecision" transform="matrix(1,0,0,1,-7557,1252)" stroke-linecap="butt">
      <rect x="8216.745" y="-505.7591" clip-path="url(#clipPath2)" fill="none" width="180.2174" rx="4" ry="4" height="21.5466"/>
      <text x="8231.4785" xml:space="preserve" y="-490.2719" clip-path="url(#clipPath2)" font-family="sans-serif" stroke="none">write_tx_message_to_buffer</text>
    </g>
    <g fill="white" text-rendering="geometricPrecision" shape-rendering="geometricPrecision" transform="matrix(1,0,0,1,-7557,1252)" stroke="white">
      <rect x="8266.4275" y="-603.9705" clip-path="url(#clipPath2)" width="180.2174" rx="4" ry="4" height="21.5466" stroke="none"/>
    </g>
    <g text-rendering="geometricPrecision" stroke-miterlimit="1.45" shape-rendering="geometricPrecision" transform="matrix(1,0,0,1,-7557,1252)" stroke-linecap="butt">
      <rect x="8266.4275" y="-603.9705" clip-path="url(#clipPath2)" fill="none" width="180.2174" rx="4" ry="4" height="21.5466"/>
      <text x="8278.1494" xml:space="preserve" y="-588.4833" clip-path="url(#clipPath2)" font-family="sans-serif" stroke="none">indicate_rx_message_to_app</text>
    </g>
    <g fill="white" text-rendering="geometricPrecision" shape-rendering="geometricPrecision" transform="matrix(1,0,0,1,-7557,1252)" stroke="white">
      <rect x="8106.6363" y="-801.9796" clip-path="url(#clipPath2)" width="180.2174" rx="4" ry="4" height="31.8744" stroke="none"/>
    </g>
    <g text-rendering="geometricPrecision" stroke-miterlimit="1.45" shape-rendering="geometricPrecision" transform="matrix(1,0,0,1,-7557,1252)" stroke-linecap="butt">
      <rect x="8106.6363" y="-801.9796" clip-path="url(#clipPath2)" fill="none" width="180.2174" rx="4" ry="4" height="31.8744"/>
      <text x="8135.0518" xml:space="preserve" y="-788.6791" clip-path="url(#clipPath2)" font-family="sans-serif" stroke="none">process_message_fsm</text>
      <text x="8143.2402" xml:space="preserve" y="-773.9779" clip-path="url(#clipPath2)" font-family="sans-serif" stroke="none">Машина состояний</text>
    </g>
    <g fill="white" text-rendering="geometricPrecision" shape-rendering="geometricPrecision" transform="matrix(1,0,0,1,-7557,1252)" stroke="white">
      <rect x="8216.745" y="-556.3235" clip-path="url(#clipPath2)" width="180.2174" rx="4" ry="4" height="21.5466" stroke="none"/>
    </g>
    <g text-rendering="geometricPrecision" stroke-miterlimit="1.45" shape-rendering="geometricPrecision" transform="matrix(1,0,0,1,-7557,1252)" stroke-linecap="butt">
      <rect x="8216.745" y="-556.3235" clip-path="url(#clipPath2)" fill="none" width="180.2174" rx="4" ry="4" height="21.5466"/>
      <text x="8254.4912" xml:space="preserve" y="-540.8362" clip-path="url(#clipPath2)" font-family="sans-serif" stroke="none">create_tx_message</text>
    </g>
    <g fill="white" text-rendering="geometricPrecision" shape-rendering="geometricPrecision" transform="matrix(1,0,0,1,-7557,1252)" stroke="white">
      <rect x="8062.9611" y="-1046.2157" clip-path="url(#clipPath2)" width="180.2174" rx="4" ry="4" height="52.7224" stroke="none"/>
    </g>
    <g text-rendering="geometricPrecision" stroke-miterlimit="1.45" shape-rendering="geometricPrecision" transform="matrix(1,0,0,1,-7557,1252)" stroke-linecap="butt">
      <rect x="8062.9611" y="-1046.2157" clip-path="url(#clipPath2)" fill="none" width="180.2174" rx="4" ry="4" height="52.7224"/>
      <text x="8118.0659" xml:space="preserve" y="-1022.4912" clip-path="url(#clipPath2)" font-family="sans-serif" stroke="none">REQ_TIMER</text>
      <text x="8085.9272" xml:space="preserve" y="-1007.79" clip-path="url(#clipPath2)" font-family="sans-serif" stroke="none">Приоритет обработки: 2</text>
      <text x="8171.5107" xml:space="preserve" y="-964.7732" clip-path="url(#clipPath2)" font-family="sans-serif" stroke="none">уведомление</text>
      <text x="8171.5107" xml:space="preserve" y="-950.072" clip-path="url(#clipPath2)" font-family="sans-serif" stroke="none">истек таймер</text>
    </g>
    <g fill="white" text-rendering="geometricPrecision" shape-rendering="geometricPrecision" transform="matrix(1,0,0,1,-7557,1252)" stroke="white">
      <rect x="8316.8537" y="-801.9796" clip-path="url(#clipPath2)" width="115.4524" rx="4" ry="4" height="31.8744" stroke="none"/>
    </g>
    <g text-rendering="geometricPrecision" stroke-miterlimit="1.45" shape-rendering="geometricPrecision" transform="matrix(1,0,0,1,-7557,1252)" stroke-linecap="butt">
      <rect x="8316.8537" y="-801.9796" clip-path="url(#clipPath2)" fill="none" width="115.4524" rx="4" ry="4" height="31.8744"/>
      <text x="8323.8789" xml:space="preserve" y="-781.3285" clip-path="url(#clipPath2)" font-family="sans-serif" stroke="none">get_message_type</text>
    </g>
    <g fill="white" text-rendering="geometricPrecision" shape-rendering="geometricPrecision" transform="matrix(1,0,0,1,-7557,1252)" stroke="white">
      <rect x="8141.5104" y="-432.0542" clip-path="url(#clipPath2)" width="230.3927" rx="4" ry="4" height="52.7224" stroke="none"/>
    </g>
    <g text-rendering="geometricPrecision" stroke-miterlimit="1.45" shape-rendering="geometricPrecision" transform="matrix(1,0,0,1,-7557,1252)" stroke-linecap="butt">
      <rect x="8141.5104" y="-432.0542" clip-path="url(#clipPath2)" fill="none" width="230.3927" rx="4" ry="4" height="52.7224"/>
      <text x="8144.186" xml:space="preserve" y="-415.6803" clip-path="url(#clipPath2)" font-family="sans-serif" stroke="none">       START_TIMER</text>
      <text x="8144.186" xml:space="preserve" y="-400.9792" clip-path="url(#clipPath2)" font-family="sans-serif" stroke="none">Взвести таймер Tack или иной согласно</text>
      <text x="8144.186" xml:space="preserve" y="-386.278" clip-path="url(#clipPath2)" font-family="sans-serif" stroke="none">логике Машины состояний</text>
    </g>
    <g fill="white" text-rendering="geometricPrecision" shape-rendering="geometricPrecision" transform="matrix(1,0,0,1,-7557,1252)" stroke="white">
      <rect x="8216.745" y="-745.6104" clip-path="url(#clipPath2)" width="180.2174" rx="4" ry="4" height="21.5466" stroke="none"/>
    </g>
    <g text-rendering="geometricPrecision" stroke-miterlimit="1.45" shape-rendering="geometricPrecision" transform="matrix(1,0,0,1,-7557,1252)" stroke-linecap="butt">
      <rect x="8216.745" y="-745.6104" clip-path="url(#clipPath2)" fill="none" width="180.2174" rx="4" ry="4" height="21.5466"/>
      <text x="8276.8301" xml:space="preserve" y="-730.1232" clip-path="url(#clipPath2)" font-family="sans-serif" stroke="none">drop_event</text>
      <text x="8329.7617" font-size="16px" y="-1036.8036" clip-path="url(#clipPath2)" font-family="sans-serif" stroke="none" xml:space="preserve">TRANSPORT+</text>
      <text x="8329.7617" font-size="16px" y="-1017.202" clip-path="url(#clipPath2)" font-family="sans-serif" stroke="none" xml:space="preserve">УРОВЕНЬ</text>
      <path fill="none" d="M7763.6104 -1167.0121 L7696.3848 -1167.0121 L7696.3848 -1054.2339" clip-path="url(#clipPath2)"/>
      <path d="M7696.3848 -1046.2339 L7701.3848 -1058.2339 L7696.3848 -1055.2339 L7691.3848 -1058.2339 Z" clip-path="url(#clipPath2)" stroke="none"/>
      <path fill="none" d="M7914.0171 -1167.0103 L7914.0171 -1106.6915 L7914.0171 -1054.3798" clip-path="url(#clipPath2)"/>
      <path d="M7914.0171 -1046.3798 L7919.0171 -1058.3798 L7914.0171 -1055.3798 L7909.0171 -1058.3798 Z" clip-path="url(#clipPath2)" stroke="none"/>
      <path fill="none" d="M7690.7388 -740.0958 L7690.7388 -812.671 L7775.7651 -812.671" clip-path="url(#clipPath2)"/>
      <path d="M7783.7651 -812.671 L7771.7651 -817.671 L7774.7651 -812.671 L7771.7651 -807.671 Z" clip-path="url(#clipPath2)" stroke="none"/>
      <path fill="none" d="M7690.7388 -993.4576 L7690.7388 -857.7529 L7775.7637 -857.7529" clip-path="url(#clipPath2)"/>
      <path d="M7783.7637 -857.7529 L7771.7637 -862.7529 L7774.7637 -857.7529 L7771.7637 -852.7529 Z" clip-path="url(#clipPath2)" stroke="none"/>
      <path fill="none" d="M7914.0171 -993.3152 L7914.0171 -936.812" clip-path="url(#clipPath2)"/>
      <path d="M7914.0171 -928.812 L7919.0171 -940.812 L7914.0171 -937.812 L7909.0171 -940.812 Z" clip-path="url(#clipPath2)" stroke="none"/>
      <path fill="none" d="M7961.2803 -670.3604 L7961.2803 -596.4351 L7961.6245 -596.4351 L7961.6245 -488.9141" clip-path="url(#clipPath2)"/>
      <path d="M7961.6245 -480.9141 L7966.6245 -492.9141 L7961.6245 -489.9141 L7956.6245 -492.9141 Z" clip-path="url(#clipPath2)" stroke="none"/>
      <path fill="none" d="M7963.9614 -379.3619 L7963.9614 -364.6136 L7963.9614 -307.1141" clip-path="url(#clipPath2)"/>
      <path d="M7963.9614 -299.1141 L7968.9614 -311.1141 L7963.9614 -308.1141 L7958.9614 -311.1141 Z" clip-path="url(#clipPath2)" stroke="none"/>
      <path fill="none" d="M7690.7388 -299.1186 L7690.7388 -364.6066 L7690.7388 -371.3566" clip-path="url(#clipPath2)"/>
      <path d="M7690.7388 -379.3566 L7685.7388 -367.3566 L7690.7388 -370.3566 L7695.7388 -367.3566 Z" clip-path="url(#clipPath2)" stroke="none"/>
      <path fill="none" d="M7690.7388 -480.9622 L7690.7388 -662.3578" clip-path="url(#clipPath2)"/>
      <path d="M7690.7388 -670.3578 L7685.7388 -658.3578 L7690.7388 -661.3578 L7695.7388 -658.3578 Z" clip-path="url(#clipPath2)" stroke="none"/>
      <path fill="none" d="M8055.2466 -857.7529 L8098.6318 -857.7529" clip-path="url(#clipPath2)"/>
      <path d="M8106.6318 -857.7529 L8094.6318 -862.7529 L8097.6318 -857.7529 L8094.6318 -852.7529 Z" clip-path="url(#clipPath2)" stroke="none"/>
      <path fill="none" d="M8344.7393 -633.9472 L8344.7393 -611.9771" clip-path="url(#clipPath2)"/>
      <path d="M8344.7393 -603.9771 L8349.7393 -615.9771 L8344.7393 -612.9771 L8339.7393 -615.9771 Z" clip-path="url(#clipPath2)" stroke="none"/>
      <path fill="none" d="M8196.7451 -847.0033 L8196.7451 -809.9672" clip-path="url(#clipPath2)"/>
      <path d="M8196.7451 -801.9672 L8201.7451 -813.9672 L8196.7451 -810.9672 L8191.7451 -813.9672 Z" clip-path="url(#clipPath2)" stroke="none"/>
      <path fill="none" d="M8196.7451 -770.1353 L8196.7451 -688.7957 L8208.7188 -688.7957" clip-path="url(#clipPath2)"/>
      <path d="M8216.7188 -688.7957 L8204.7188 -693.7957 L8207.7188 -688.7957 L8204.7188 -683.7957 Z" clip-path="url(#clipPath2)" stroke="none"/>
      <path fill="none" d="M8196.7451 -770.1064 L8196.7451 -644.7438 L8208.7188 -644.7438" clip-path="url(#clipPath2)"/>
      <path d="M8216.7188 -644.7438 L8204.7188 -649.7438 L8207.7188 -644.7438 L8204.7188 -639.7438 Z" clip-path="url(#clipPath2)" stroke="none"/>
      <path fill="none" d="M8196.7451 -770.1057 L8196.7451 -453.8455 L8083.5522 -453.8455" clip-path="url(#clipPath2)"/>
      <path d="M8075.5522 -453.8455 L8087.5522 -448.8455 L8084.5522 -453.8455 L8087.5522 -458.8455 Z" clip-path="url(#clipPath2)" stroke="none"/>
      <path fill="none" d="M8345.3525 -582.4059 L8345.3525 -564.3481" clip-path="url(#clipPath2)"/>
      <path d="M8345.3525 -556.3481 L8350.3525 -568.3481 L8345.3525 -565.3481 L8340.3525 -568.3481 Z" clip-path="url(#clipPath2)" stroke="none"/>
      <path fill="none" d="M8196.7451 -770.1096 L8196.7451 -545.5501 L8208.7266 -545.5501" clip-path="url(#clipPath2)"/>
      <path d="M8216.7266 -545.5501 L8204.7266 -550.5501 L8207.7266 -545.5501 L8204.7266 -540.5501 Z" clip-path="url(#clipPath2)" stroke="none"/>
      <path fill="none" d="M8238.8125 -633.9658 L8238.8125 -564.3372" clip-path="url(#clipPath2)"/>
      <path d="M8238.8125 -556.3372 L8243.8125 -568.3372 L8238.8125 -565.3372 L8233.8125 -568.3372 Z" clip-path="url(#clipPath2)" stroke="none"/>
      <path fill="none" d="M8306.8535 -534.7361 L8306.8535 -513.7385" clip-path="url(#clipPath2)"/>
      <path d="M8306.8535 -505.7385 L8311.8535 -517.7385 L8306.8535 -514.7385 L8301.8535 -517.7385 Z" clip-path="url(#clipPath2)" stroke="none"/>
      <path fill="none" d="M8153.0698 -993.4756 L8153.0698 -904.2953 L8063.2568 -904.2953" clip-path="url(#clipPath2)"/>
      <path d="M8055.2568 -904.2953 L8067.2568 -899.2953 L8064.2568 -904.2953 L8067.2568 -909.2953 Z" clip-path="url(#clipPath2)" stroke="none"/>
      <path fill="none" stroke-dasharray="6,2" d="M8316.8594 -783.6934 L8294.8584 -783.6934" clip-path="url(#clipPath2)"/>
      <path stroke-dasharray="6,2" d="M8286.8584 -783.6934 L8298.8584 -778.6934 L8295.8584 -783.6934 L8298.8584 -788.6934 Z" clip-path="url(#clipPath2)" stroke="none"/>
      <path fill="none" d="M8075.5635 -405.693 L8133.5024 -405.693" clip-path="url(#clipPath2)"/>
      <path d="M8141.5024 -405.693 L8129.5024 -410.693 L8132.5024 -405.693 L8129.5024 -400.693 Z" clip-path="url(#clipPath2)" stroke="none"/>
      <path fill="none" stroke-dasharray="6,2" d="M8264.4492 -802.0216 L8264.4492 -823.4999 L8461.5586 -823.4999 L8461.5586 -405.693 L8379.9111 -405.693" clip-path="url(#clipPath2)"/>
      <path stroke-dasharray="6,2" d="M8371.9111 -405.693 L8383.9111 -400.693 L8380.9111 -405.693 L8383.9111 -410.693 Z" clip-path="url(#clipPath2)" stroke="none"/>
      <path fill="none" d="M8196.7451 -770.0758 L8196.7451 -734.837 L8208.7266 -734.837" clip-path="url(#clipPath2)"/>
      <path d="M8216.7266 -734.837 L8204.7266 -739.837 L8207.7266 -734.837 L8204.7266 -729.837 Z" clip-path="url(#clipPath2)" stroke="none"/>
    </g>
  </g>
</svg>
