<?xml version="1.0" encoding="UTF-8"?><svg xmlns="http://www.w3.org/2000/svg" xmlns:xlink="http://www.w3.org/1999/xlink" fill-opacity="1" color-rendering="auto" color-interpolation="auto" text-rendering="auto" stroke="black" stroke-linecap="square" width="400" stroke-miterlimit="10" shape-rendering="auto" stroke-opacity="1" fill="black" stroke-dasharray="none" font-weight="normal" stroke-width="1" height="468" font-family="'Dialog'" font-style="normal" stroke-linejoin="miter" font-size="12px" stroke-dashoffset="0" image-rendering="auto">
  <!--Generated by ySVG 2.5-->
  <defs id="genericDefs"/>
  <g>
    <defs id="defs1">
      <clipPath clipPathUnits="userSpaceOnUse" id="clipPath1">
        <path d="M0 0 L400 0 L400 468 L0 468 L0 0 Z"/>
      </clipPath>
      <clipPath clipPathUnits="userSpaceOnUse" id="clipPath2">
        <path d="M401 78 L801 78 L801 546 L401 546 L401 78 Z"/>
      </clipPath>
    </defs>
    <g fill="white" text-rendering="geometricPrecision" shape-rendering="geometricPrecision" transform="translate(-401,-78)" stroke="white">
      <rect x="401" width="400" height="468" y="78" clip-path="url(#clipPath2)" stroke="none"/>
    </g>
    <g fill="rgb(153,255,153)" text-rendering="geometricPrecision" shape-rendering="geometricPrecision" transform="matrix(1,0,0,1,-401,-78)" stroke="rgb(153,255,153)">
      <rect x="515" width="271" height="30" y="93" clip-path="url(#clipPath2)" stroke="none"/>
    </g>
    <g text-rendering="geometricPrecision" stroke-miterlimit="1.45" shape-rendering="geometricPrecision" transform="matrix(1,0,0,1,-401,-78)" stroke-linecap="butt">
      <rect fill="none" x="515" width="271" height="30" y="93" clip-path="url(#clipPath2)"/>
    </g>
    <g fill="rgb(153,255,153)" text-rendering="geometricPrecision" shape-rendering="geometricPrecision" transform="matrix(1,0,0,1,-401,-78)" stroke="rgb(153,255,153)">
      <rect x="506" width="271" height="30" y="104" clip-path="url(#clipPath2)" stroke="none"/>
    </g>
    <g text-rendering="geometricPrecision" stroke-miterlimit="1.45" shape-rendering="geometricPrecision" transform="matrix(1,0,0,1,-401,-78)" stroke-linecap="butt">
      <rect fill="none" x="506" width="271" height="30" y="104" clip-path="url(#clipPath2)"/>
    </g>
    <g fill="rgb(153,255,153)" text-rendering="geometricPrecision" shape-rendering="geometricPrecision" transform="matrix(1,0,0,1,-401,-78)" stroke="rgb(153,255,153)">
      <rect x="499" width="271" height="30" y="116" clip-path="url(#clipPath2)" stroke="none"/>
    </g>
    <g text-rendering="geometricPrecision" stroke-miterlimit="1.45" shape-rendering="geometricPrecision" transform="matrix(1,0,0,1,-401,-78)" stroke-linecap="butt">
      <rect fill="none" x="499" width="271" height="30" y="116" clip-path="url(#clipPath2)"/>
      <text x="599.3965" xml:space="preserve" y="135.7139" clip-path="url(#clipPath2)" font-family="sans-serif" stroke="none">Приложения</text>
    </g>
    <g fill="rgb(204,255,153)" text-rendering="geometricPrecision" shape-rendering="geometricPrecision" transform="matrix(1,0,0,1,-401,-78)" stroke="rgb(204,255,153)">
      <rect x="499" width="271" height="53" y="246" clip-path="url(#clipPath2)" stroke="none"/>
    </g>
    <g text-rendering="geometricPrecision" stroke-miterlimit="1.45" shape-rendering="geometricPrecision" transform="matrix(1,0,0,1,-401,-78)" stroke-linecap="butt">
      <rect fill="none" x="499" width="271" height="53" y="246" clip-path="url(#clipPath2)"/>
      <text x="605.3203" xml:space="preserve" y="269.8633" clip-path="url(#clipPath2)" font-family="sans-serif" stroke="none">Transport+</text>
      <text x="557.6426" xml:space="preserve" y="284.5645" clip-path="url(#clipPath2)" font-family="sans-serif" stroke="none">Над-транспортный уровень</text>
    </g>
    <g fill="rgb(204,255,255)" text-rendering="geometricPrecision" shape-rendering="geometricPrecision" transform="matrix(1,0,0,1,-401,-78)" stroke="rgb(204,255,255)">
      <rect x="499" width="271" height="53" y="399" clip-path="url(#clipPath2)" stroke="none"/>
    </g>
    <g text-rendering="geometricPrecision" stroke-miterlimit="1.45" shape-rendering="geometricPrecision" transform="matrix(1,0,0,1,-401,-78)" stroke-linecap="butt">
      <rect fill="none" x="499" width="271" height="53" y="399" clip-path="url(#clipPath2)"/>
      <text x="608.165" xml:space="preserve" y="422.8633" clip-path="url(#clipPath2)" font-family="sans-serif" stroke="none">TCP/UDP</text>
      <text x="568.2275" xml:space="preserve" y="437.5645" clip-path="url(#clipPath2)" font-family="sans-serif" stroke="none">Транспортный уровень </text>
      <text x="418.6685" xml:space="preserve" y="188.3633" clip-path="url(#clipPath2)" font-family="sans-serif" stroke="none">Интерфейс данных</text>
      <text x="447.6754" xml:space="preserve" y="203.0645" clip-path="url(#clipPath2)" font-family="sans-serif" stroke="none">(данные)</text>
      <text x="599.0402" xml:space="preserve" y="181.0127" clip-path="url(#clipPath2)" font-family="sans-serif" stroke="none">Конфигурационный</text>
      <text x="623.0402" xml:space="preserve" y="195.7139" clip-path="url(#clipPath2)" font-family="sans-serif" stroke="none">интерфейс</text>
      <text x="585.9562" xml:space="preserve" y="210.415" clip-path="url(#clipPath2)" font-family="sans-serif" stroke="none">(reset, flush, параметры)</text>
      <text x="518.6685" xml:space="preserve" y="346.3633" clip-path="url(#clipPath2)" font-family="sans-serif" stroke="none">Интерфейс данных</text>
      <text x="537.4918" xml:space="preserve" y="361.0645" clip-path="url(#clipPath2)" font-family="sans-serif" stroke="none">(сообщения)</text>
      <text x="550.1611" xml:space="preserve" y="487.7139" clip-path="url(#clipPath2)" font-family="sans-serif" stroke="none">Пакеты TCP</text>
      <path fill="none" d="M537.2857 146.034 L537.2857 237.9746" clip-path="url(#clipPath2)"/>
      <path d="M537.2857 245.9746 L542.2857 233.9746 L537.2857 236.9746 L532.2857 233.9746 Z" clip-path="url(#clipPath2)" stroke="none"/>
      <path fill="none" d="M726.2521 146.0098 L726.2521 237.9762" clip-path="url(#clipPath2)"/>
      <path d="M726.2521 245.9762 L731.2521 233.9762 L726.2521 236.9762 L721.2521 233.9762 Z" clip-path="url(#clipPath2)" stroke="none"/>
      <path fill="none" d="M551.5604 245.996 L551.5604 154.0098" clip-path="url(#clipPath2)"/>
      <path d="M551.5604 146.0098 L546.5604 158.0098 L551.5604 155.0098 L556.5604 158.0098 Z" clip-path="url(#clipPath2)" stroke="none"/>
      <path fill="none" d="M634.5 299 L634.5 391" clip-path="url(#clipPath2)"/>
      <path d="M634.5 399 L639.5 387 L634.5 390 L629.5 387 Z" clip-path="url(#clipPath2)" stroke="none"/>
      <path fill="none" d="M651.9946 398.9613 L651.9946 307.0234" clip-path="url(#clipPath2)"/>
      <path d="M651.9946 299.0234 L646.9946 311.0234 L651.9946 308.0234 L656.9946 311.0234 Z" clip-path="url(#clipPath2)" stroke="none"/>
      <path fill="none" d="M634.5 452 L634.5 520" clip-path="url(#clipPath2)"/>
      <path d="M634.5 528 L639.5 516 L634.5 519 L629.5 516 Z" clip-path="url(#clipPath2)" stroke="none"/>
      <path fill="none" d="M652.9186 527.9637 L652.9186 460.0331" clip-path="url(#clipPath2)"/>
      <path d="M652.9186 452.0331 L647.9186 464.0331 L652.9186 461.0331 L657.9186 464.0331 Z" clip-path="url(#clipPath2)" stroke="none"/>
    </g>
  </g>
</svg>
