<?xml version="1.0" encoding="UTF-8"?><svg xmlns="http://www.w3.org/2000/svg" xmlns:xlink="http://www.w3.org/1999/xlink" fill-opacity="1" color-rendering="auto" color-interpolation="auto" text-rendering="auto" stroke="black" stroke-linecap="square" width="863" stroke-miterlimit="10" shape-rendering="auto" stroke-opacity="1" fill="black" stroke-dasharray="none" font-weight="normal" stroke-width="1" height="567" font-family="'Dialog'" font-style="normal" stroke-linejoin="miter" font-size="12px" stroke-dashoffset="0" image-rendering="auto">
  <!--Generated by ySVG 2.5-->
  <defs id="genericDefs"/>
  <g>
    <defs id="defs1">
      <clipPath clipPathUnits="userSpaceOnUse" id="clipPath1">
        <path d="M0 0 L863 0 L863 567 L0 567 L0 0 Z"/>
      </clipPath>
      <clipPath clipPathUnits="userSpaceOnUse" id="clipPath2">
        <path d="M17 -105 L880 -105 L880 462 L17 462 L17 -105 Z"/>
      </clipPath>
    </defs>
    <g fill="white" text-rendering="geometricPrecision" shape-rendering="geometricPrecision" transform="translate(-17,105)" stroke="white">
      <rect x="17" width="863" height="567" y="-105" clip-path="url(#clipPath2)" stroke="none"/>
    </g>
    <g text-rendering="geometricPrecision" stroke-miterlimit="1.45" shape-rendering="geometricPrecision" transform="matrix(1,0,0,1,-17,105)" stroke-linecap="butt">
      <rect fill="none" x="32.0229" width="832.4775" height="535.535" y="-89.3375" clip-path="url(#clipPath2)"/>
      <text x="38.0229" font-size="16px" y="-71.2516" clip-path="url(#clipPath2)" font-family="sans-serif" stroke="none" xml:space="preserve">МОДЕЛЬ P2P СЕТИ </text>
    </g>
    <g fill="rgb(204,255,255)" text-rendering="geometricPrecision" shape-rendering="geometricPrecision" transform="matrix(1,0,0,1,-17,105)" stroke="rgb(204,255,255)">
      <rect x="226.866" width="611.4395" height="161.44" y="276.12" clip-path="url(#clipPath2)" stroke="none"/>
    </g>
    <g text-rendering="geometricPrecision" stroke-miterlimit="1.45" shape-rendering="geometricPrecision" transform="matrix(1,0,0,1,-17,105)" stroke-linecap="butt">
      <rect fill="none" x="226.866" width="611.4395" height="161.44" y="276.12" clip-path="url(#clipPath2)"/>
      <text x="489.3465" xml:space="preserve" y="290.1844" clip-path="url(#clipPath2)" font-family="sans-serif" stroke="none">Модель IP сети</text>
      <text x="408.0682" xml:space="preserve" y="304.8856" clip-path="url(#clipPath2)" font-family="sans-serif" stroke="none">пересылает с задержками сообщения Chord</text>
      <text x="491.2098" xml:space="preserve" y="319.5868" clip-path="url(#clipPath2)" font-family="sans-serif" stroke="none">между узлами </text>
    </g>
    <g fill="white" text-rendering="geometricPrecision" shape-rendering="geometricPrecision" transform="matrix(1,0,0,1,-17,105)" stroke="white">
      <rect x="258.706" width="547.7595" height="82.48" y="333.3698" clip-path="url(#clipPath2)" stroke="none"/>
    </g>
    <g text-rendering="geometricPrecision" stroke-miterlimit="1.45" shape-rendering="geometricPrecision" transform="matrix(1,0,0,1,-17,105)" stroke-linecap="butt">
      <rect fill="none" x="258.706" width="547.7595" height="82.48" y="333.3698" clip-path="url(#clipPath2)"/>
      <text x="510.5809" xml:space="preserve" y="351.4342" clip-path="url(#clipPath2)" font-family="sans-serif" stroke="none">Network</text>
    </g>
    <g fill="rgb(239,239,239)" text-rendering="geometricPrecision" shape-rendering="geometricPrecision" transform="matrix(1,0,0,1,-17,105)" stroke="rgb(239,239,239)">
      <rect x="224.289" width="268.7275" height="303.66" y="-75.83" clip-path="url(#clipPath2)" stroke="none"/>
    </g>
    <g text-rendering="geometricPrecision" stroke-miterlimit="1.45" shape-rendering="geometricPrecision" transform="matrix(1,0,0,1,-17,105)" stroke-linecap="butt">
      <rect fill="none" x="224.289" width="268.7275" height="303.66" y="-75.83" clip-path="url(#clipPath2)"/>
      <text x="230.289" xml:space="preserve" y="-61.7655" clip-path="url(#clipPath2)" font-family="sans-serif" stroke="none">УЗЕЛ 1</text>
    </g>
    <g fill="rgb(204,255,153)" text-rendering="geometricPrecision" shape-rendering="geometricPrecision" transform="matrix(1,0,0,1,-17,105)" stroke="rgb(204,255,153)">
      <rect x="241.888" width="229.04" height="133.04" y="75.64" clip-path="url(#clipPath2)" stroke="none"/>
    </g>
    <g text-rendering="geometricPrecision" stroke-miterlimit="1.45" shape-rendering="geometricPrecision" transform="matrix(1,0,0,1,-17,105)" stroke-linecap="butt">
      <rect fill="none" x="241.888" width="229.04" height="133.04" y="75.64" clip-path="url(#clipPath2)"/>
      <text x="259.1189" xml:space="preserve" y="89.7045" clip-path="url(#clipPath2)" font-family="sans-serif" stroke="none">Модель над-транспортного уровня</text>
    </g>
    <g fill="rgb(153,255,153)" text-rendering="geometricPrecision" shape-rendering="geometricPrecision" transform="matrix(1,0,0,1,-17,105)" stroke="rgb(153,255,153)">
      <rect x="241.888" width="229.04" height="82.48" y="-38.76" clip-path="url(#clipPath2)" stroke="none"/>
    </g>
    <g text-rendering="geometricPrecision" stroke-miterlimit="1.45" shape-rendering="geometricPrecision" transform="matrix(1,0,0,1,-17,105)" stroke-linecap="butt">
      <rect fill="none" x="241.888" width="229.04" height="82.48" y="-38.76" clip-path="url(#clipPath2)"/>
      <text x="243.6238" xml:space="preserve" y="-24.6955" clip-path="url(#clipPath2)" font-family="sans-serif" stroke="none">Модель приложения трафик генераторa</text>
    </g>
    <g fill="white" text-rendering="geometricPrecision" shape-rendering="geometricPrecision" transform="matrix(1,0,0,1,-17,105)" stroke="white">
      <rect x="281.808" width="141.36" height="35.12" y="-6.56" clip-path="url(#clipPath2)" stroke="none"/>
    </g>
    <g text-rendering="geometricPrecision" stroke-miterlimit="1.45" shape-rendering="geometricPrecision" transform="matrix(1,0,0,1,-17,105)" stroke-linecap="butt">
      <rect fill="none" x="281.808" width="141.36" height="35.12" y="-6.56" clip-path="url(#clipPath2)"/>
      <text x="318.1316" xml:space="preserve" y="15.7139" clip-path="url(#clipPath2)" font-family="sans-serif" stroke="none">Application 1</text>
    </g>
    <g fill="white" text-rendering="geometricPrecision" shape-rendering="geometricPrecision" transform="matrix(1,0,0,1,-17,105)" stroke="white">
      <rect x="266.528" width="179.76" height="75" y="119" clip-path="url(#clipPath2)" stroke="none"/>
    </g>
    <g text-rendering="geometricPrecision" stroke-miterlimit="1.45" shape-rendering="geometricPrecision" transform="matrix(1,0,0,1,-17,105)" stroke-linecap="butt">
      <rect fill="none" x="266.528" width="179.76" height="75" y="119" clip-path="url(#clipPath2)"/>
      <text x="311.3846" xml:space="preserve" y="133.0645" clip-path="url(#clipPath2)" font-family="sans-serif" stroke="none">Transport_plus 1</text>
    </g>
    <g fill="white" text-rendering="geometricPrecision" shape-rendering="geometricPrecision" transform="matrix(1,0,0,1,-17,105)" stroke="white">
      <rect x="285.728" width="141.36" height="28.72" y="145.56" clip-path="url(#clipPath2)" stroke="none"/>
    </g>
    <g text-rendering="geometricPrecision" stroke-miterlimit="1.45" stroke-dasharray="6,2" shape-rendering="geometricPrecision" transform="matrix(1,0,0,1,-17,105)" stroke-linecap="butt">
      <rect fill="none" x="285.728" width="141.36" height="28.72" y="145.56" clip-path="url(#clipPath2)"/>
      <text x="292.034" y="164.6339" clip-path="url(#clipPath2)" font-family="sans-serif" stroke-dasharray="none" stroke="none" xml:space="preserve">low_latency_chord 0x11</text>
      <text x="236.6633" y="64.3939" clip-path="url(#clipPath2)" font-family="sans-serif" stroke-dasharray="none" stroke="none" xml:space="preserve">Сообщения приложения</text>
    </g>
    <g fill="rgb(239,239,239)" text-rendering="geometricPrecision" shape-rendering="geometricPrecision" transform="matrix(1,0,0,1,-17,105)" stroke="rgb(239,239,239)">
      <rect x="569.578" width="268.7275" height="303.66" y="-75.83" clip-path="url(#clipPath2)" stroke="none"/>
    </g>
    <g text-rendering="geometricPrecision" stroke-miterlimit="1.45" shape-rendering="geometricPrecision" transform="matrix(1,0,0,1,-17,105)" stroke-linecap="butt">
      <rect fill="none" x="569.578" width="268.7275" height="303.66" y="-75.83" clip-path="url(#clipPath2)"/>
      <text x="575.578" xml:space="preserve" y="-61.7655" clip-path="url(#clipPath2)" font-family="sans-serif" stroke="none">УЗЕЛ 2000</text>
    </g>
    <g fill="rgb(204,255,153)" text-rendering="geometricPrecision" shape-rendering="geometricPrecision" transform="matrix(1,0,0,1,-17,105)" stroke="rgb(204,255,153)">
      <rect x="587.177" width="229.04" height="133.04" y="75.64" clip-path="url(#clipPath2)" stroke="none"/>
    </g>
    <g text-rendering="geometricPrecision" stroke-miterlimit="1.45" shape-rendering="geometricPrecision" transform="matrix(1,0,0,1,-17,105)" stroke-linecap="butt">
      <rect fill="none" x="587.177" width="229.04" height="133.04" y="75.64" clip-path="url(#clipPath2)"/>
      <text x="604.408" xml:space="preserve" y="89.7045" clip-path="url(#clipPath2)" font-family="sans-serif" stroke="none">Модель над-транспортного уровня</text>
    </g>
    <g fill="rgb(153,255,153)" text-rendering="geometricPrecision" shape-rendering="geometricPrecision" transform="matrix(1,0,0,1,-17,105)" stroke="rgb(153,255,153)">
      <rect x="587.177" width="229.04" height="82.48" y="-38.76" clip-path="url(#clipPath2)" stroke="none"/>
    </g>
    <g text-rendering="geometricPrecision" stroke-miterlimit="1.45" shape-rendering="geometricPrecision" transform="matrix(1,0,0,1,-17,105)" stroke-linecap="butt">
      <rect fill="none" x="587.177" width="229.04" height="82.48" y="-38.76" clip-path="url(#clipPath2)"/>
      <text x="588.9128" xml:space="preserve" y="-24.6955" clip-path="url(#clipPath2)" font-family="sans-serif" stroke="none">Модель приложения трафик генераторa</text>
    </g>
    <g fill="white" text-rendering="geometricPrecision" shape-rendering="geometricPrecision" transform="matrix(1,0,0,1,-17,105)" stroke="white">
      <rect x="627.097" width="141.36" height="35.12" y="-6.56" clip-path="url(#clipPath2)" stroke="none"/>
    </g>
    <g text-rendering="geometricPrecision" stroke-miterlimit="1.45" shape-rendering="geometricPrecision" transform="matrix(1,0,0,1,-17,105)" stroke-linecap="butt">
      <rect fill="none" x="627.097" width="141.36" height="35.12" y="-6.56" clip-path="url(#clipPath2)"/>
      <text x="653.4098" xml:space="preserve" y="15.7139" clip-path="url(#clipPath2)" font-family="sans-serif" stroke="none">Application 2000</text>
    </g>
    <g fill="white" text-rendering="geometricPrecision" shape-rendering="geometricPrecision" transform="matrix(1,0,0,1,-17,105)" stroke="white">
      <rect x="611.817" width="179.76" height="75" y="119" clip-path="url(#clipPath2)" stroke="none"/>
    </g>
    <g text-rendering="geometricPrecision" stroke-miterlimit="1.45" shape-rendering="geometricPrecision" transform="matrix(1,0,0,1,-17,105)" stroke-linecap="butt">
      <rect fill="none" x="611.817" width="179.76" height="75" y="119" clip-path="url(#clipPath2)"/>
      <text x="646.6628" xml:space="preserve" y="133.0645" clip-path="url(#clipPath2)" font-family="sans-serif" stroke="none">Transport_plus 2000</text>
    </g>
    <g fill="white" text-rendering="geometricPrecision" shape-rendering="geometricPrecision" transform="matrix(1,0,0,1,-17,105)" stroke="white">
      <rect x="631.017" width="141.36" height="28.72" y="145.56" clip-path="url(#clipPath2)" stroke="none"/>
    </g>
    <g text-rendering="geometricPrecision" stroke-miterlimit="1.45" stroke-dasharray="6,2" shape-rendering="geometricPrecision" transform="matrix(1,0,0,1,-17,105)" stroke-linecap="butt">
      <rect fill="none" x="631.017" width="141.36" height="28.72" y="145.56" clip-path="url(#clipPath2)"/>
      <text x="635.9988" y="164.6339" clip-path="url(#clipPath2)" font-family="sans-serif" stroke-dasharray="none" stroke="none" xml:space="preserve">low_latency_chord 0xFD</text>
      <text x="576.9522" y="64.3939" clip-path="url(#clipPath2)" font-family="sans-serif" stroke-dasharray="none" stroke="none" xml:space="preserve">Сообщения приложения</text>
      <text x="273.9604" y="256.6889" clip-path="url(#clipPath2)" font-family="sans-serif" stroke-dasharray="none" stroke="none" xml:space="preserve">Сообщения Chord</text>
      <text x="521.7974" font-size="18px" y="166.9908" clip-path="url(#clipPath2)" font-family="sans-serif" stroke-dasharray="none" stroke="none" xml:space="preserve">...</text>
      <rect x="55.0327" y="341.0872" clip-path="url(#clipPath2)" fill="none" width="132.144" stroke-dasharray="none" height="48.1513" stroke="rgb(51,51,51)"/>
    </g>
    <g stroke-linecap="butt" transform="matrix(1,0,0,1,-17,105)" fill="rgb(51,51,51)" text-rendering="geometricPrecision" font-family="sans-serif" shape-rendering="geometricPrecision" stroke="rgb(51,51,51)" stroke-miterlimit="1.45">
      <text x="97.0402" xml:space="preserve" y="355.1756" clip-path="url(#clipPath2)" stroke="none">Таблица</text>
      <text x="76.8283" xml:space="preserve" y="369.8767" clip-path="url(#clipPath2)" stroke="none">маршрутизации</text>
      <text x="101.3322" xml:space="preserve" y="384.5779" clip-path="url(#clipPath2)" stroke="none">IP сети</text>
      <rect fill="none" x="55.0327" width="132.144" height="57.28" y="131.28" clip-path="url(#clipPath2)"/>
      <text x="75.7473" xml:space="preserve" y="142.5821" clip-path="url(#clipPath2)" stroke="none">таблица связей:</text>
      <text x="97.7639" xml:space="preserve" y="157.2833" clip-path="url(#clipPath2)" stroke="none">- fingers,</text>
      <text x="88.7639" xml:space="preserve" y="171.9845" clip-path="url(#clipPath2)" stroke="none">- successor,</text>
      <text x="91.0959" xml:space="preserve" y="186.6856" clip-path="url(#clipPath2)" stroke="none">- precessor</text>
      <text fill="black" x="635.773" xml:space="preserve" y="374.8403" clip-path="url(#clipPath2)" stroke="none">  </text>
    </g>
    <g fill="rgb(224,224,224)" text-rendering="geometricPrecision" shape-rendering="geometricPrecision" transform="matrix(1,0,0,1,-17,105)" stroke="rgb(224,224,224)">
      <rect x="426.6217" width="179.76" height="15.92" y="362.1664" clip-path="url(#clipPath2)" stroke="none"/>
    </g>
    <g text-rendering="geometricPrecision" stroke-miterlimit="1.45" shape-rendering="geometricPrecision" transform="matrix(1,0,0,1,-17,105)" stroke-linecap="butt">
      <rect fill="none" x="426.6217" width="179.76" height="15.92" y="362.1664" clip-path="url(#clipPath2)"/>
      <text x="433.4275" xml:space="preserve" y="374.8403" clip-path="url(#clipPath2)" font-family="sans-serif" stroke="none">сообщение [0xFD,0x11,join,...]</text>
    </g>
    <g fill="rgb(224,224,224)" text-rendering="geometricPrecision" shape-rendering="geometricPrecision" transform="matrix(1,0,0,1,-17,105)" stroke="rgb(224,224,224)">
      <rect x="421.6217" width="328.7418" height="15.92" y="393.6434" clip-path="url(#clipPath2)" stroke="none"/>
    </g>
    <g text-rendering="geometricPrecision" stroke-miterlimit="1.45" shape-rendering="geometricPrecision" transform="matrix(1,0,0,1,-17,105)" stroke-linecap="butt">
      <rect fill="none" x="421.6217" width="328.7418" height="15.92" y="393.6434" clip-path="url(#clipPath2)"/>
      <text x="427.2181" xml:space="preserve" y="406.3173" clip-path="url(#clipPath2)" font-family="sans-serif" stroke="none">ответное сообщение [0xFD,0x11,reply_find_successor, ...]</text>
      <text x="388.8752" xml:space="preserve" y="406.3173" clip-path="url(#clipPath2)" font-family="sans-serif" stroke="none">  </text>
      <path fill="none" d="M393.9413 275.393 L393.9413 251.7766 L393.9413 251.7766 L393.9413 236.8514" stroke-width="2" clip-path="url(#clipPath2)"/>
      <path d="M393.9413 227.8514 L388.3163 241.3514 L393.9413 237.9764 L399.5663 241.3514 Z" stroke-width="2" clip-path="url(#clipPath2)" stroke="none"/>
      <path fill="none" d="M420.2367 227.8239 L420.2367 267.1172" stroke-width="2" clip-path="url(#clipPath2)"/>
      <path d="M420.2367 276.1172 L425.8617 262.6172 L420.2367 265.9922 L414.6117 262.6172 Z" stroke-width="2" clip-path="url(#clipPath2)" stroke="none"/>
      <path fill="none" d="M391.9438 75.6102 L391.9438 52.7459" stroke-width="2" clip-path="url(#clipPath2)"/>
      <path d="M391.9438 43.7459 L386.3188 57.2459 L391.9438 53.8709 L397.5688 57.2459 Z" stroke-width="2" clip-path="url(#clipPath2)" stroke="none"/>
      <path fill="none" d="M411.9438 43.6835 L411.9438 66.638" stroke-width="2" clip-path="url(#clipPath2)"/>
      <path d="M411.9438 75.638 L417.5688 62.138 L411.9438 65.513 L406.3188 62.138 Z" stroke-width="2" clip-path="url(#clipPath2)" stroke="none"/>
      <path fill="none" stroke-dasharray="6,2" d="M420.2367 227.8538 L420.2367 377.9826 L735.2109 377.9826 L735.2109 235.8338" clip-path="url(#clipPath2)"/>
      <path stroke-dasharray="6,2" d="M735.2109 227.8338 L730.2109 239.8338 L735.2109 236.8338 L740.2109 239.8338 Z" clip-path="url(#clipPath2)" stroke="none"/>
      <path fill="none" d="M735.2109 276.1202 L735.2109 236.837" stroke-width="2" clip-path="url(#clipPath2)"/>
      <path d="M735.2109 227.837 L729.5859 241.337 L735.2109 237.962 L740.8359 241.337 Z" stroke-width="2" clip-path="url(#clipPath2)" stroke="none"/>
      <path fill="none" d="M755.2109 227.8618 L755.2109 267.1187" stroke-width="2" clip-path="url(#clipPath2)"/>
      <path d="M755.2109 276.1187 L760.8359 262.6187 L755.2109 265.9937 L749.5859 262.6187 Z" stroke-width="2" clip-path="url(#clipPath2)" stroke="none"/>
      <path fill="none" stroke-dasharray="6,2" d="M755.2109 227.8338 L755.2109 409.6098 L393.9413 409.6098 L393.9413 235.8647" clip-path="url(#clipPath2)"/>
      <path stroke-dasharray="6,2" d="M393.9413 227.8647 L388.9413 239.8647 L393.9413 236.8647 L398.9413 239.8647 Z" clip-path="url(#clipPath2)" stroke="none"/>
      <path fill="none" d="M731.3621 75.6385 L731.3621 52.673" stroke-width="2" clip-path="url(#clipPath2)"/>
      <path d="M731.3621 43.673 L725.7371 57.173 L731.3621 53.798 L736.9871 57.173 Z" stroke-width="2" clip-path="url(#clipPath2)" stroke="none"/>
      <path fill="none" d="M755.2469 43.7395 L755.2469 66.6432" stroke-width="2" clip-path="url(#clipPath2)"/>
      <path d="M755.2469 75.6432 L760.8719 62.1432 L755.2469 65.5182 L749.6219 62.1432 Z" stroke-width="2" clip-path="url(#clipPath2)" stroke="none"/>
      <path fill="none" stroke-dasharray="6,2" d="M250.6873 368.0135 L187.1752 368.0135" clip-path="url(#clipPath2)"/>
      <path stroke-dasharray="6,2" d="M258.6873 368.0135 L246.6873 363.0135 L249.6873 368.0135 L246.6873 373.0135 Z" clip-path="url(#clipPath2)" stroke="none"/>
      <path fill="none" stroke-dasharray="6,2" d="M187.1767 159.92 L277.728 159.92" clip-path="url(#clipPath2)"/>
      <path stroke-dasharray="6,2" d="M285.728 159.92 L273.728 154.92 L276.728 159.92 L273.728 164.92 Z" clip-path="url(#clipPath2)" stroke="none"/>
      <path fill="none" d="M606.3817 370.1264 L621.737 370.1264" clip-path="url(#clipPath2)"/>
      <path d="M629.737 370.1264 L617.737 365.1264 L620.737 370.1264 L617.737 375.1264 Z" clip-path="url(#clipPath2)" stroke="none"/>
      <path fill="none" d="M421.6217 401.6034 L409.5431 401.6034" clip-path="url(#clipPath2)"/>
      <path d="M401.5431 401.6034 L413.5431 406.6034 L410.5431 401.6034 L413.5431 396.6034 Z" clip-path="url(#clipPath2)" stroke="none"/>
    </g>
  </g>
</svg>
