<?xml version="1.0" encoding="UTF-8"?><svg xmlns="http://www.w3.org/2000/svg" xmlns:xlink="http://www.w3.org/1999/xlink" fill-opacity="1" color-rendering="auto" color-interpolation="auto" text-rendering="auto" stroke="black" stroke-linecap="square" width="1148" stroke-miterlimit="10" shape-rendering="auto" stroke-opacity="1" fill="black" stroke-dasharray="none" font-weight="normal" stroke-width="1" height="489" font-family="'Dialog'" font-style="normal" stroke-linejoin="miter" font-size="12px" stroke-dashoffset="0" image-rendering="auto">
  <!--Generated by ySVG 2.5-->
  <defs id="genericDefs"/>
  <g>
    <defs id="defs1">
      <clipPath clipPathUnits="userSpaceOnUse" id="clipPath1">
        <path d="M0 0 L1148 0 L1148 489 L0 489 L0 0 Z"/>
      </clipPath>
      <clipPath clipPathUnits="userSpaceOnUse" id="clipPath2">
        <path d="M40 -115 L1188 -115 L1188 374 L40 374 L40 -115 Z"/>
      </clipPath>
    </defs>
    <g fill="white" text-rendering="geometricPrecision" shape-rendering="geometricPrecision" transform="translate(-40,115)" stroke="white">
      <rect x="40" width="1148" height="489" y="-115" clip-path="url(#clipPath2)" stroke="none"/>
    </g>
    <g fill="rgb(204,255,255)" text-rendering="geometricPrecision" shape-rendering="geometricPrecision" transform="matrix(1,0,0,1,-40,115)" stroke="rgb(204,255,255)">
      <rect x="226.866" width="611.4395" height="82.48" y="276.12" clip-path="url(#clipPath2)" stroke="none"/>
    </g>
    <g text-rendering="geometricPrecision" stroke-miterlimit="1.45" shape-rendering="geometricPrecision" transform="matrix(1,0,0,1,-40,115)" stroke-linecap="butt">
      <rect fill="none" x="226.866" width="611.4395" height="82.48" y="276.12" clip-path="url(#clipPath2)"/>
      <text x="489.3465" xml:space="preserve" y="290.1844" clip-path="url(#clipPath2)" font-family="sans-serif" stroke="none">Модель IP сети</text>
      <text x="394.7234" xml:space="preserve" y="304.8856" clip-path="url(#clipPath2)" font-family="sans-serif" stroke="none">пересылает с задержками пакеты между узлами </text>
    </g>
    <g fill="white" text-rendering="geometricPrecision" shape-rendering="geometricPrecision" transform="matrix(1,0,0,1,-40,115)" stroke="white">
      <rect x="269.52" width="547.7595" height="35.12" y="312.9501" clip-path="url(#clipPath2)" stroke="none"/>
    </g>
    <g text-rendering="geometricPrecision" stroke-miterlimit="1.45" shape-rendering="geometricPrecision" transform="matrix(1,0,0,1,-40,115)" stroke-linecap="butt">
      <rect fill="none" x="269.52" width="547.7595" height="35.12" y="312.9501" clip-path="url(#clipPath2)"/>
      <text x="521.3949" xml:space="preserve" y="335.2239" clip-path="url(#clipPath2)" font-family="sans-serif" stroke="none">Network</text>
    </g>
    <g fill="rgb(239,239,239)" text-rendering="geometricPrecision" shape-rendering="geometricPrecision" transform="matrix(1,0,0,1,-40,115)" stroke="rgb(239,239,239)">
      <rect x="224.289" width="268.7275" height="303.66" y="-75.83" clip-path="url(#clipPath2)" stroke="none"/>
    </g>
    <g text-rendering="geometricPrecision" stroke-miterlimit="1.45" shape-rendering="geometricPrecision" transform="matrix(1,0,0,1,-40,115)" stroke-linecap="butt">
      <rect fill="none" x="224.289" width="268.7275" height="303.66" y="-75.83" clip-path="url(#clipPath2)"/>
      <text x="230.289" xml:space="preserve" y="-61.7655" clip-path="url(#clipPath2)" font-family="sans-serif" stroke="none">УЗЕЛ_1</text>
    </g>
    <g fill="rgb(204,255,153)" text-rendering="geometricPrecision" shape-rendering="geometricPrecision" transform="matrix(1,0,0,1,-40,115)" stroke="rgb(204,255,153)">
      <rect x="241.888" width="229.04" height="133.04" y="75.64" clip-path="url(#clipPath2)" stroke="none"/>
    </g>
    <g text-rendering="geometricPrecision" stroke-miterlimit="1.45" shape-rendering="geometricPrecision" transform="matrix(1,0,0,1,-40,115)" stroke-linecap="butt">
      <rect fill="none" x="241.888" width="229.04" height="133.04" y="75.64" clip-path="url(#clipPath2)"/>
      <text x="259.1189" xml:space="preserve" y="89.7045" clip-path="url(#clipPath2)" font-family="sans-serif" stroke="none">Модель над-транспортного уровня</text>
    </g>
    <g fill="rgb(153,255,153)" text-rendering="geometricPrecision" shape-rendering="geometricPrecision" transform="matrix(1,0,0,1,-40,115)" stroke="rgb(153,255,153)">
      <rect x="241.888" width="229.04" height="82.48" y="-38.76" clip-path="url(#clipPath2)" stroke="none"/>
    </g>
    <g text-rendering="geometricPrecision" stroke-miterlimit="1.45" shape-rendering="geometricPrecision" transform="matrix(1,0,0,1,-40,115)" stroke-linecap="butt">
      <rect fill="none" x="241.888" width="229.04" height="82.48" y="-38.76" clip-path="url(#clipPath2)"/>
      <text x="243.6238" xml:space="preserve" y="-24.6955" clip-path="url(#clipPath2)" font-family="sans-serif" stroke="none">Модель приложения трафик генераторa</text>
    </g>
    <g fill="white" text-rendering="geometricPrecision" shape-rendering="geometricPrecision" transform="matrix(1,0,0,1,-40,115)" stroke="white">
      <rect x="281.808" width="141.36" height="35.12" y="-6.56" clip-path="url(#clipPath2)" stroke="none"/>
    </g>
    <g text-rendering="geometricPrecision" stroke-miterlimit="1.45" shape-rendering="geometricPrecision" transform="matrix(1,0,0,1,-40,115)" stroke-linecap="butt">
      <rect fill="none" x="281.808" width="141.36" height="35.12" y="-6.56" clip-path="url(#clipPath2)"/>
      <text x="318.1316" xml:space="preserve" y="15.7139" clip-path="url(#clipPath2)" font-family="sans-serif" stroke="none">Application 1</text>
    </g>
    <g fill="white" text-rendering="geometricPrecision" shape-rendering="geometricPrecision" transform="matrix(1,0,0,1,-40,115)" stroke="white">
      <rect x="266.528" width="179.76" height="75" y="119" clip-path="url(#clipPath2)" stroke="none"/>
    </g>
    <g text-rendering="geometricPrecision" stroke-miterlimit="1.45" shape-rendering="geometricPrecision" transform="matrix(1,0,0,1,-40,115)" stroke-linecap="butt">
      <rect fill="none" x="266.528" width="179.76" height="75" y="119" clip-path="url(#clipPath2)"/>
      <text x="311.3846" xml:space="preserve" y="133.0645" clip-path="url(#clipPath2)" font-family="sans-serif" stroke="none">Transport_plus 1</text>
    </g>
    <g fill="white" text-rendering="geometricPrecision" shape-rendering="geometricPrecision" transform="matrix(1,0,0,1,-40,115)" stroke="white">
      <rect x="285.728" width="141.36" height="28.72" y="145.56" clip-path="url(#clipPath2)" stroke="none"/>
    </g>
    <g text-rendering="geometricPrecision" stroke-miterlimit="1.45" stroke-dasharray="6,2" shape-rendering="geometricPrecision" transform="matrix(1,0,0,1,-40,115)" stroke-linecap="butt">
      <rect fill="none" x="285.728" width="141.36" height="28.72" y="145.56" clip-path="url(#clipPath2)"/>
      <text x="295.3709" y="164.6339" clip-path="url(#clipPath2)" font-family="sans-serif" stroke-dasharray="none" stroke="none" xml:space="preserve">low_latency_chord 0x1</text>
      <text x="272.3703" y="64.3939" clip-path="url(#clipPath2)" font-family="sans-serif" stroke-dasharray="none" stroke="none" xml:space="preserve">Сообщения</text>
    </g>
    <g fill="rgb(239,239,239)" text-rendering="geometricPrecision" shape-rendering="geometricPrecision" transform="matrix(1,0,0,1,-40,115)" stroke="rgb(239,239,239)">
      <rect x="569.578" width="268.7275" height="303.66" y="-75.83" clip-path="url(#clipPath2)" stroke="none"/>
    </g>
    <g text-rendering="geometricPrecision" stroke-miterlimit="1.45" shape-rendering="geometricPrecision" transform="matrix(1,0,0,1,-40,115)" stroke-linecap="butt">
      <rect fill="none" x="569.578" width="268.7275" height="303.66" y="-75.83" clip-path="url(#clipPath2)"/>
      <text x="575.578" xml:space="preserve" y="-61.7655" clip-path="url(#clipPath2)" font-family="sans-serif" stroke="none">УЗЕЛ 2000</text>
    </g>
    <g fill="rgb(204,255,153)" text-rendering="geometricPrecision" shape-rendering="geometricPrecision" transform="matrix(1,0,0,1,-40,115)" stroke="rgb(204,255,153)">
      <rect x="587.177" width="229.04" height="133.04" y="75.64" clip-path="url(#clipPath2)" stroke="none"/>
    </g>
    <g text-rendering="geometricPrecision" stroke-miterlimit="1.45" shape-rendering="geometricPrecision" transform="matrix(1,0,0,1,-40,115)" stroke-linecap="butt">
      <rect fill="none" x="587.177" width="229.04" height="133.04" y="75.64" clip-path="url(#clipPath2)"/>
      <text x="604.408" xml:space="preserve" y="89.7045" clip-path="url(#clipPath2)" font-family="sans-serif" stroke="none">Модель над-транспортного уровня</text>
    </g>
    <g fill="rgb(153,255,153)" text-rendering="geometricPrecision" shape-rendering="geometricPrecision" transform="matrix(1,0,0,1,-40,115)" stroke="rgb(153,255,153)">
      <rect x="587.177" width="229.04" height="82.48" y="-38.76" clip-path="url(#clipPath2)" stroke="none"/>
    </g>
    <g text-rendering="geometricPrecision" stroke-miterlimit="1.45" shape-rendering="geometricPrecision" transform="matrix(1,0,0,1,-40,115)" stroke-linecap="butt">
      <rect fill="none" x="587.177" width="229.04" height="82.48" y="-38.76" clip-path="url(#clipPath2)"/>
      <text x="588.9128" xml:space="preserve" y="-24.6955" clip-path="url(#clipPath2)" font-family="sans-serif" stroke="none">Модель приложения трафик генераторa</text>
    </g>
    <g fill="white" text-rendering="geometricPrecision" shape-rendering="geometricPrecision" transform="matrix(1,0,0,1,-40,115)" stroke="white">
      <rect x="627.097" width="141.36" height="35.12" y="-6.56" clip-path="url(#clipPath2)" stroke="none"/>
    </g>
    <g text-rendering="geometricPrecision" stroke-miterlimit="1.45" shape-rendering="geometricPrecision" transform="matrix(1,0,0,1,-40,115)" stroke-linecap="butt">
      <rect fill="none" x="627.097" width="141.36" height="35.12" y="-6.56" clip-path="url(#clipPath2)"/>
      <text x="653.4098" xml:space="preserve" y="15.7139" clip-path="url(#clipPath2)" font-family="sans-serif" stroke="none">Application 2000</text>
    </g>
    <g fill="white" text-rendering="geometricPrecision" shape-rendering="geometricPrecision" transform="matrix(1,0,0,1,-40,115)" stroke="white">
      <rect x="611.817" width="179.76" height="75" y="119" clip-path="url(#clipPath2)" stroke="none"/>
    </g>
    <g text-rendering="geometricPrecision" stroke-miterlimit="1.45" shape-rendering="geometricPrecision" transform="matrix(1,0,0,1,-40,115)" stroke-linecap="butt">
      <rect fill="none" x="611.817" width="179.76" height="75" y="119" clip-path="url(#clipPath2)"/>
      <text x="646.6628" xml:space="preserve" y="133.0645" clip-path="url(#clipPath2)" font-family="sans-serif" stroke="none">Transport_plus 2000</text>
    </g>
    <g fill="white" text-rendering="geometricPrecision" shape-rendering="geometricPrecision" transform="matrix(1,0,0,1,-40,115)" stroke="white">
      <rect x="631.017" width="141.36" height="28.72" y="145.56" clip-path="url(#clipPath2)" stroke="none"/>
    </g>
    <g text-rendering="geometricPrecision" stroke-miterlimit="1.45" stroke-dasharray="6,2" shape-rendering="geometricPrecision" transform="matrix(1,0,0,1,-40,115)" stroke-linecap="butt">
      <rect fill="none" x="631.017" width="141.36" height="28.72" y="145.56" clip-path="url(#clipPath2)"/>
      <text x="632.99" y="164.6339" clip-path="url(#clipPath2)" font-family="sans-serif" stroke-dasharray="none" stroke="none" xml:space="preserve">low_latency_chord 0x7D0</text>
      <text x="617.6593" y="64.3939" clip-path="url(#clipPath2)" font-family="sans-serif" stroke-dasharray="none" stroke="none" xml:space="preserve">Сообщения</text>
      <text x="641.5239" y="256.6889" clip-path="url(#clipPath2)" font-family="sans-serif" stroke-dasharray="none" stroke="none" xml:space="preserve">Пакеты</text>
      <text x="300.2289" y="256.6889" clip-path="url(#clipPath2)" font-family="sans-serif" stroke-dasharray="none" stroke="none" xml:space="preserve">Пакеты</text>
    </g>
    <g fill="rgb(153,255,153)" text-rendering="geometricPrecision" shape-rendering="geometricPrecision" transform="matrix(1,0,0,1,-40,115)" stroke="rgb(153,255,153)">
      <rect x="943.416" width="229.04" height="35.12" y="-50.2" clip-path="url(#clipPath2)" stroke="none"/>
    </g>
    <g text-rendering="geometricPrecision" stroke-miterlimit="1.45" shape-rendering="geometricPrecision" transform="matrix(1,0,0,1,-40,115)" stroke-linecap="butt">
      <rect fill="none" x="943.416" width="229.04" height="35.12" y="-50.2" clip-path="url(#clipPath2)"/>
      <text x="999.6645" xml:space="preserve" y="-27.9261" clip-path="url(#clipPath2)" font-family="sans-serif" stroke="none">Прикладной уровень</text>
    </g>
    <g fill="rgb(153,255,153)" text-rendering="geometricPrecision" shape-rendering="geometricPrecision" transform="matrix(1,0,0,1,-40,115)" stroke="rgb(153,255,153)">
      <rect x="943.416" width="229.04" height="35.12" y="-15.08" clip-path="url(#clipPath2)" stroke="none"/>
    </g>
    <g text-rendering="geometricPrecision" stroke-miterlimit="1.45" shape-rendering="geometricPrecision" transform="matrix(1,0,0,1,-40,115)" stroke-linecap="butt">
      <rect fill="none" x="943.416" width="229.04" height="35.12" y="-15.08" clip-path="url(#clipPath2)"/>
      <text x="990.3715" xml:space="preserve" y="7.1939" clip-path="url(#clipPath2)" font-family="sans-serif" stroke="none">Уровень представления</text>
    </g>
    <g fill="rgb(153,255,153)" text-rendering="geometricPrecision" shape-rendering="geometricPrecision" transform="matrix(1,0,0,1,-40,115)" stroke="rgb(153,255,153)">
      <rect x="943.416" width="229.04" height="125.52" y="20.04" clip-path="url(#clipPath2)" stroke="none"/>
    </g>
    <g text-rendering="geometricPrecision" stroke-miterlimit="1.45" shape-rendering="geometricPrecision" transform="matrix(1,0,0,1,-40,115)" stroke-linecap="butt">
      <rect fill="none" x="943.416" width="229.04" height="125.52" y="20.04" clip-path="url(#clipPath2)"/>
      <text x="1002.1225" xml:space="preserve" y="87.5139" clip-path="url(#clipPath2)" font-family="sans-serif" stroke="none">Сеансовый уровень</text>
    </g>
    <g fill="rgb(204,255,255)" text-rendering="geometricPrecision" shape-rendering="geometricPrecision" transform="matrix(1,0,0,1,-40,115)" stroke="rgb(204,255,255)">
      <rect x="943.416" width="229.04" height="95.8" y="145.56" clip-path="url(#clipPath2)" stroke="none"/>
    </g>
    <g text-rendering="geometricPrecision" stroke-miterlimit="1.45" shape-rendering="geometricPrecision" transform="matrix(1,0,0,1,-40,115)" stroke-linecap="butt">
      <rect fill="none" x="943.416" width="229.04" height="95.8" y="145.56" clip-path="url(#clipPath2)"/>
      <text x="1017.6352" xml:space="preserve" y="198.1739" clip-path="url(#clipPath2)" font-family="sans-serif" stroke="none">Транспортный</text>
    </g>
    <g fill="yellow" text-rendering="geometricPrecision" shape-rendering="geometricPrecision" transform="matrix(1,0,0,1,-40,115)" stroke="yellow">
      <rect x="943.416" width="229.04" height="39.08" y="241.36" clip-path="url(#clipPath2)" stroke="none"/>
    </g>
    <g text-rendering="geometricPrecision" stroke-miterlimit="1.45" shape-rendering="geometricPrecision" transform="matrix(1,0,0,1,-40,115)" stroke-linecap="butt">
      <rect fill="none" x="943.416" width="229.04" height="39.08" y="241.36" clip-path="url(#clipPath2)"/>
      <text x="1034.3052" xml:space="preserve" y="265.6139" clip-path="url(#clipPath2)" font-family="sans-serif" stroke="none">Сетевой</text>
    </g>
    <g fill="rgb(255,102,0)" text-rendering="geometricPrecision" shape-rendering="geometricPrecision" transform="matrix(1,0,0,1,-40,115)" stroke="rgb(255,102,0)">
      <rect x="943.416" width="229.04" height="39.08" y="280.44" clip-path="url(#clipPath2)" stroke="none"/>
    </g>
    <g text-rendering="geometricPrecision" stroke-miterlimit="1.45" shape-rendering="geometricPrecision" transform="matrix(1,0,0,1,-40,115)" stroke-linecap="butt">
      <rect fill="none" x="943.416" width="229.04" height="39.08" y="280.44" clip-path="url(#clipPath2)"/>
      <text x="1026.8491" xml:space="preserve" y="304.6939" clip-path="url(#clipPath2)" font-family="sans-serif" stroke="none">Канальный</text>
    </g>
    <g fill="rgb(255,86,86)" text-rendering="geometricPrecision" shape-rendering="geometricPrecision" transform="matrix(1,0,0,1,-40,115)" stroke="rgb(255,86,86)">
      <rect x="943.416" width="229.04" height="39.08" y="319.52" clip-path="url(#clipPath2)" stroke="none"/>
    </g>
    <g text-rendering="geometricPrecision" stroke-miterlimit="1.45" shape-rendering="geometricPrecision" transform="matrix(1,0,0,1,-40,115)" stroke-linecap="butt">
      <rect fill="none" x="943.416" width="229.04" height="39.08" y="319.52" clip-path="url(#clipPath2)"/>
      <text x="1025.1294" xml:space="preserve" y="343.7739" clip-path="url(#clipPath2)" font-family="sans-serif" stroke="none">Физический</text>
      <text x="991.6797" font-size="14px" y="-83.7262" clip-path="url(#clipPath2)" font-family="sans-serif" stroke="none" xml:space="preserve">7 уровневая модель</text>
      <text x="947.1607" font-size="14px" y="-66.5748" clip-path="url(#clipPath2)" font-family="sans-serif" stroke="none" xml:space="preserve">Open System Interconnection (OSI)</text>
      <text x="521.7974" font-size="18px" y="166.9908" clip-path="url(#clipPath2)" font-family="sans-serif" stroke="none" xml:space="preserve">...</text>
      <rect x="55.0327" y="296.5557" clip-path="url(#clipPath2)" fill="none" width="132.144" height="48.1513" stroke="rgb(51,51,51)"/>
      <text x="97.0402" y="310.644" clip-path="url(#clipPath2)" fill="rgb(51,51,51)" font-family="sans-serif" stroke="none" xml:space="preserve">Таблица</text>
      <text x="76.8283" y="325.3452" clip-path="url(#clipPath2)" fill="rgb(51,51,51)" font-family="sans-serif" stroke="none" xml:space="preserve">маршрутизации</text>
      <text x="96.4777" y="340.0464" clip-path="url(#clipPath2)" fill="rgb(51,51,51)" font-family="sans-serif" stroke="none" xml:space="preserve">в IP сети</text>
      <rect x="55.0327" y="131.28" clip-path="url(#clipPath2)" fill="none" width="132.144" height="57.28" stroke="rgb(51,51,51)"/>
      <text x="75.7473" y="142.5821" clip-path="url(#clipPath2)" fill="rgb(51,51,51)" font-family="sans-serif" stroke="none" xml:space="preserve">таблица связей:</text>
      <text x="97.7639" y="157.2833" clip-path="url(#clipPath2)" fill="rgb(51,51,51)" font-family="sans-serif" stroke="none" xml:space="preserve">- fingers,</text>
      <text x="88.7639" y="171.9845" clip-path="url(#clipPath2)" fill="rgb(51,51,51)" font-family="sans-serif" stroke="none" xml:space="preserve">- successor,</text>
      <text x="91.0959" y="186.6856" clip-path="url(#clipPath2)" fill="rgb(51,51,51)" font-family="sans-serif" stroke="none" xml:space="preserve">- precessor</text>
    </g>
    <g fill="rgb(204,255,153)" text-rendering="geometricPrecision" shape-rendering="geometricPrecision" transform="matrix(1,0,0,1,-40,115)" stroke="rgb(204,255,153)">
      <rect x="943.416" width="229.04" height="12.64" y="132.92" clip-path="url(#clipPath2)" stroke="none"/>
    </g>
    <g text-rendering="geometricPrecision" stroke-miterlimit="1.45" stroke-dasharray="6,2" shape-rendering="geometricPrecision" transform="matrix(1,0,0,1,-40,115)" stroke-linecap="butt">
      <rect fill="none" x="943.416" width="229.04" height="12.64" y="132.92" clip-path="url(#clipPath2)"/>
      <path fill="none" stroke-dasharray="none" d="M358.6527 276.1414 L358.6527 235.83" clip-path="url(#clipPath2)"/>
      <path stroke-dasharray="none" d="M358.6527 227.83 L353.6527 239.83 L358.6527 236.83 L363.6527 239.83 Z" clip-path="url(#clipPath2)" stroke="none"/>
      <path fill="none" stroke-dasharray="none" d="M378.6527 227.8491 L378.6527 268.0869" clip-path="url(#clipPath2)"/>
      <path stroke-dasharray="none" d="M378.6527 276.0869 L383.6527 264.0869 L378.6527 267.0869 L373.6527 264.0869 Z" clip-path="url(#clipPath2)" stroke="none"/>
      <path fill="none" stroke-dasharray="none" d="M352.7703 75.66 L352.7703 51.6917" clip-path="url(#clipPath2)"/>
      <path stroke-dasharray="none" d="M352.7703 43.6917 L347.7703 55.6917 L352.7703 52.6917 L357.7703 55.6917 Z" clip-path="url(#clipPath2)" stroke="none"/>
      <path fill="none" stroke-dasharray="none" d="M372.7703 43.7037 L372.7703 67.5983" clip-path="url(#clipPath2)"/>
      <path stroke-dasharray="none" d="M372.7703 75.5983 L377.7703 63.5983 L372.7703 66.5983 L367.7703 63.5983 Z" clip-path="url(#clipPath2)" stroke="none"/>
      <path fill="none" stroke-dasharray="none" d="M699.9478 275.2041 L699.9478 235.8653" clip-path="url(#clipPath2)"/>
      <path stroke-dasharray="none" d="M699.9478 227.8653 L694.9478 239.8653 L699.9478 236.8653 L704.9478 239.8653 Z" clip-path="url(#clipPath2)" stroke="none"/>
      <path fill="none" stroke-dasharray="none" d="M724.063 228.6121 L723.7227 268.0988" clip-path="url(#clipPath2)"/>
      <path stroke-dasharray="none" d="M723.6538 276.0984 L728.757 264.142 L723.7313 267.0988 L718.7574 264.0558 Z" clip-path="url(#clipPath2)" stroke="none"/>
      <path fill="none" d="M816.2285 77.758 L942.9737 134.7477" clip-path="url(#clipPath2)"/>
      <path fill="none" stroke-dasharray="none" d="M698.0593 75.66 L698.0593 51.6917" clip-path="url(#clipPath2)"/>
      <path stroke-dasharray="none" d="M698.0593 43.6917 L693.0593 55.6917 L698.0593 52.6917 L703.0593 55.6917 Z" clip-path="url(#clipPath2)" stroke="none"/>
      <path fill="none" stroke-dasharray="none" d="M718.0593 43.7037 L718.0593 67.5983" clip-path="url(#clipPath2)"/>
      <path stroke-dasharray="none" d="M718.0593 75.5983 L723.0593 63.5983 L718.0593 66.5983 L713.0593 63.5983 Z" clip-path="url(#clipPath2)" stroke="none"/>
      <path fill="none" d="M942.711 -50.4903 L816.223 -38.2023" clip-path="url(#clipPath2)"/>
      <path fill="none" d="M816.2342 207.9516 L945.7856 145.5697" clip-path="url(#clipPath2)"/>
      <path fill="none" d="M943.4085 134.4567 L815.223 43.7417" clip-path="url(#clipPath2)"/>
      <path fill="none" d="M944.5314 145.578 L836.217 276.1096" clip-path="url(#clipPath2)"/>
      <path fill="none" d="M943.3949 358.1416 L890.7859 358.1416 L890.7859 357.1897 L838.3558 357.1897" clip-path="url(#clipPath2)"/>
      <path fill="none" d="M218.8517 320.6313 L187.1767 320.6313" clip-path="url(#clipPath2)"/>
      <path d="M226.8517 320.6313 L214.8517 315.6313 L217.8517 320.6313 L214.8517 325.6313 Z" clip-path="url(#clipPath2)" stroke="none"/>
      <path fill="none" d="M187.1767 159.92 L277.728 159.92" clip-path="url(#clipPath2)"/>
      <path d="M285.728 159.92 L273.728 154.92 L276.728 159.92 L273.728 164.92 Z" clip-path="url(#clipPath2)" stroke="none"/>
    </g>
  </g>
</svg>
